<mxfile host="app.diagrams.net" agent="Mozilla/5.0 (Windows NT 10.0; Win64; x64) AppleWebKit/537.36 (KHTML, like Gecko) Chrome/129.0.0.0 Safari/537.36 Edg/129.0.0.0" version="24.7.16">
  <diagram name="Страница — 1" id="I9b2rhlldtggpzdVo2Wk">
    <mxGraphModel dx="3707" dy="1796" grid="1" gridSize="10" guides="1" tooltips="1" connect="1" arrows="1" fold="1" page="1" pageScale="1" pageWidth="827" pageHeight="1169" background="#ffffff" math="0" shadow="0">
      <root>
        <mxCell id="0" />
        <mxCell id="1" parent="0" />
        <mxCell id="IYKv4-9v9WQwq1Tj8tWP-13" value="" style="strokeWidth=1;shadow=0;dashed=0;align=center;html=1;shape=mxgraph.mockup.containers.browserWindow;rSize=0;strokeColor=#666666;strokeColor2=#008cff;strokeColor3=#c4c4c4;mainText=,;recursiveResize=0;" parent="1" vertex="1">
          <mxGeometry x="-80" y="-320" width="1320" height="720" as="geometry" />
        </mxCell>
        <mxCell id="IYKv4-9v9WQwq1Tj8tWP-14" value="Page 1" style="strokeWidth=1;shadow=0;dashed=0;align=center;html=1;shape=mxgraph.mockup.containers.anchor;fontSize=17;fontColor=#666666;align=left;whiteSpace=wrap;" parent="IYKv4-9v9WQwq1Tj8tWP-13" vertex="1">
          <mxGeometry x="60" y="12" width="110" height="26" as="geometry" />
        </mxCell>
        <mxCell id="IYKv4-9v9WQwq1Tj8tWP-15" value="https://www.hostname/admin/key" style="strokeWidth=1;shadow=0;dashed=0;align=center;html=1;shape=mxgraph.mockup.containers.anchor;rSize=0;fontSize=17;fontColor=#666666;align=left;" parent="IYKv4-9v9WQwq1Tj8tWP-13" vertex="1">
          <mxGeometry x="130" y="60" width="310" height="26" as="geometry" />
        </mxCell>
        <mxCell id="IYKv4-9v9WQwq1Tj8tWP-16" value="" style="strokeWidth=1;shadow=0;dashed=0;align=center;html=1;shape=mxgraph.mockup.forms.rrect;rSize=0;strokeColor=#6c8ebf;fillColor=#dae8fc;" parent="IYKv4-9v9WQwq1Tj8tWP-13" vertex="1">
          <mxGeometry x="470" y="260" width="340" height="200" as="geometry" />
        </mxCell>
        <mxCell id="IYKv4-9v9WQwq1Tj8tWP-17" value="Административная панель" style="strokeWidth=1;shadow=0;dashed=0;align=center;html=1;shape=mxgraph.mockup.forms.anchor;fontSize=12;fontColor=#000000;align=left;resizeWidth=1;spacingLeft=0;" parent="IYKv4-9v9WQwq1Tj8tWP-16" vertex="1">
          <mxGeometry width="169.99999999999997" height="20" relative="1" as="geometry">
            <mxPoint x="10" y="10" as="offset" />
          </mxGeometry>
        </mxCell>
        <mxCell id="IYKv4-9v9WQwq1Tj8tWP-18" value="" style="shape=line;strokeColor=#F0F8FF;strokeWidth=3;html=1;resizeWidth=1;" parent="IYKv4-9v9WQwq1Tj8tWP-16" vertex="1">
          <mxGeometry width="320" height="10" relative="1" as="geometry">
            <mxPoint x="10" y="30" as="offset" />
          </mxGeometry>
        </mxCell>
        <mxCell id="IYKv4-9v9WQwq1Tj8tWP-19" value="Имя пользователя:" style="strokeWidth=1;shadow=0;dashed=0;align=center;html=1;shape=mxgraph.mockup.forms.anchor;fontSize=12;fontColor=#000000;align=left;resizeWidth=1;spacingLeft=0;" parent="IYKv4-9v9WQwq1Tj8tWP-16" vertex="1">
          <mxGeometry width="169.99999999999997" height="20" relative="1" as="geometry">
            <mxPoint x="10" y="40" as="offset" />
          </mxGeometry>
        </mxCell>
        <mxCell id="IYKv4-9v9WQwq1Tj8tWP-20" value="johndoe" style="strokeWidth=1;shadow=0;dashed=0;align=center;html=1;shape=mxgraph.mockup.forms.rrect;rSize=0;strokeColor=#999999;fontColor=#666666;align=left;spacingLeft=5;resizeWidth=1;" parent="IYKv4-9v9WQwq1Tj8tWP-16" vertex="1">
          <mxGeometry width="255" height="25" relative="1" as="geometry">
            <mxPoint x="10" y="60" as="offset" />
          </mxGeometry>
        </mxCell>
        <mxCell id="IYKv4-9v9WQwq1Tj8tWP-21" value="Пароль:" style="strokeWidth=1;shadow=0;dashed=0;align=center;html=1;shape=mxgraph.mockup.forms.anchor;fontSize=12;fontColor=#000000;align=left;resizeWidth=1;spacingLeft=0;" parent="IYKv4-9v9WQwq1Tj8tWP-16" vertex="1">
          <mxGeometry width="169.99999999999997" height="20" relative="1" as="geometry">
            <mxPoint x="10" y="95" as="offset" />
          </mxGeometry>
        </mxCell>
        <mxCell id="IYKv4-9v9WQwq1Tj8tWP-22" value="********" style="strokeWidth=1;shadow=0;dashed=0;align=center;html=1;shape=mxgraph.mockup.forms.rrect;rSize=0;strokeColor=#999999;fontColor=#666666;align=left;spacingLeft=5;resizeWidth=1;" parent="IYKv4-9v9WQwq1Tj8tWP-16" vertex="1">
          <mxGeometry width="255" height="25" relative="1" as="geometry">
            <mxPoint x="10" y="115" as="offset" />
          </mxGeometry>
        </mxCell>
        <mxCell id="IYKv4-9v9WQwq1Tj8tWP-23" value="SIGN IN" style="strokeWidth=1;shadow=0;dashed=0;align=center;html=1;shape=mxgraph.mockup.forms.rrect;rSize=5;strokeColor=none;fontColor=#ffffff;fillColor=#66bbff;fontSize=16;fontStyle=1;" parent="IYKv4-9v9WQwq1Tj8tWP-16" vertex="1">
          <mxGeometry y="1" width="80" height="30" relative="1" as="geometry">
            <mxPoint x="130" y="-40" as="offset" />
          </mxGeometry>
        </mxCell>
        <mxCell id="IYKv4-9v9WQwq1Tj8tWP-26" value="" style="strokeWidth=1;shadow=0;dashed=0;align=center;html=1;shape=mxgraph.mockup.forms.anchor;fontSize=12;fontColor=#666666;align=left;spacingLeft=0;resizeWidth=1;" parent="IYKv4-9v9WQwq1Tj8tWP-16" vertex="1">
          <mxGeometry y="1" width="255" height="20" relative="1" as="geometry">
            <mxPoint x="10" y="-70" as="offset" />
          </mxGeometry>
        </mxCell>
        <mxCell id="IYKv4-9v9WQwq1Tj8tWP-28" value="" style="verticalLabelPosition=bottom;verticalAlign=top;html=1;strokeWidth=2;shape=mxgraph.arrows2.arrow;dy=0.6;dx=40;notch=0;" parent="1" vertex="1">
          <mxGeometry x="1280" y="55" width="350" height="70" as="geometry" />
        </mxCell>
        <mxCell id="IYKv4-9v9WQwq1Tj8tWP-29" value="&lt;font style=&quot;font-size: 15px;&quot;&gt;Если авторизация&lt;/font&gt;&lt;div style=&quot;font-size: 15px;&quot;&gt;&lt;font style=&quot;font-size: 15px;&quot;&gt;не была успешно&lt;/font&gt;&lt;/div&gt;&lt;div style=&quot;font-size: 15px;&quot;&gt;&lt;font style=&quot;font-size: 15px;&quot;&gt;пройдена&lt;/font&gt;&lt;/div&gt;" style="whiteSpace=wrap;html=1;shape=mxgraph.basic.rectCallout;dx=30;dy=15;boundedLbl=1;" parent="1" vertex="1">
          <mxGeometry x="1400" y="-20" width="150" height="85" as="geometry" />
        </mxCell>
        <mxCell id="IYKv4-9v9WQwq1Tj8tWP-45" value="" style="html=1;shadow=0;dashed=0;align=center;verticalAlign=middle;shape=mxgraph.arrows2.arrow;dy=0.6;dx=40;direction=south;notch=0;" parent="1" vertex="1">
          <mxGeometry x="545" y="420" width="70" height="240" as="geometry" />
        </mxCell>
        <mxCell id="IYKv4-9v9WQwq1Tj8tWP-46" value="" style="strokeWidth=1;shadow=0;dashed=0;align=left;html=1;shape=mxgraph.mockup.containers.browserWindow;rSize=0;strokeColor=#666666;strokeColor2=#008cff;strokeColor3=#c4c4c4;mainText=,;recursiveResize=0;container=0;" parent="1" vertex="1">
          <mxGeometry x="-80" y="680" width="1320" height="720" as="geometry" />
        </mxCell>
        <mxCell id="IYKv4-9v9WQwq1Tj8tWP-61" value="Кнопка отправляет запрос на авторизацию токена. При успешной авторизации кнопка должна изменится на зеленый цвет и надпись &quot;ACTIVATE&quot;. Токен фиксируется и не должен меняться. Для деактивации необходимо повторно нажать на кнопку.&amp;nbsp;&lt;div&gt;С активным Токеном у пользователя расширяется доступный функционал.&lt;/div&gt;" style="whiteSpace=wrap;html=1;shape=mxgraph.basic.rectCallout;dx=30;dy=15;boundedLbl=1;" parent="1" vertex="1">
          <mxGeometry x="1210" y="660" width="250" height="140" as="geometry" />
        </mxCell>
        <mxCell id="IYKv4-9v9WQwq1Tj8tWP-113" value="" style="shape=mxgraph.mockup.forms.rrect;rSize=5;strokeColor=#DFE1E5;fillColor=#ffffff;shadow=1" parent="1" vertex="1">
          <mxGeometry x="1690" y="1000" width="250" height="177.11" as="geometry" />
        </mxCell>
        <mxCell id="IYKv4-9v9WQwq1Tj8tWP-114" value="November 2015" style="strokeColor=none;fillColor=none;fontColor=#253858;fontSize=16;fontStyle=1" parent="IYKv4-9v9WQwq1Tj8tWP-113" vertex="1">
          <mxGeometry x="46.875" y="8.096457142857142" width="156.25" height="20.241142857142858" as="geometry" />
        </mxCell>
        <mxCell id="IYKv4-9v9WQwq1Tj8tWP-115" value="&lt;" style="strokeColor=none;fillColor=none;fontColor=#253858;fontSize=19;fontStyle=1;" parent="IYKv4-9v9WQwq1Tj8tWP-113" vertex="1">
          <mxGeometry x="12.5" y="8.096457142857142" width="39.0625" height="20.241142857142858" as="geometry" />
        </mxCell>
        <mxCell id="IYKv4-9v9WQwq1Tj8tWP-116" value="&gt;" style="strokeColor=none;fillColor=none;fontColor=#253858;fontSize=19;fontStyle=1;" parent="IYKv4-9v9WQwq1Tj8tWP-113" vertex="1">
          <mxGeometry x="198.43749999999997" y="8.096457142857142" width="39.0625" height="20.241142857142858" as="geometry" />
        </mxCell>
        <mxCell id="IYKv4-9v9WQwq1Tj8tWP-117" value="SUN" style="strokeColor=none;fillColor=none;fontColor=#999999;fontSize=12;fontStyle=1" parent="IYKv4-9v9WQwq1Tj8tWP-113" vertex="1">
          <mxGeometry x="15.625000000000002" y="28.3376" width="31.250000000000004" height="20.241142857142858" as="geometry" />
        </mxCell>
        <mxCell id="IYKv4-9v9WQwq1Tj8tWP-118" value="MON" style="strokeColor=none;fillColor=none;fontColor=#999999;fontSize=12;fontStyle=1" parent="IYKv4-9v9WQwq1Tj8tWP-113" vertex="1">
          <mxGeometry x="46.875" y="28.3376" width="31.250000000000004" height="20.241142857142858" as="geometry" />
        </mxCell>
        <mxCell id="IYKv4-9v9WQwq1Tj8tWP-119" value="TUE" style="strokeColor=none;fillColor=none;fontColor=#999999;fontSize=12;fontStyle=1" parent="IYKv4-9v9WQwq1Tj8tWP-113" vertex="1">
          <mxGeometry x="78.125" y="28.3376" width="31.250000000000004" height="20.241142857142858" as="geometry" />
        </mxCell>
        <mxCell id="IYKv4-9v9WQwq1Tj8tWP-120" value="WED" style="strokeColor=none;fillColor=none;fontColor=#999999;fontSize=12;fontStyle=1" parent="IYKv4-9v9WQwq1Tj8tWP-113" vertex="1">
          <mxGeometry x="109.37499999999999" y="28.3376" width="31.250000000000004" height="20.241142857142858" as="geometry" />
        </mxCell>
        <mxCell id="IYKv4-9v9WQwq1Tj8tWP-121" value="THU" style="strokeColor=none;fillColor=none;fontColor=#999999;fontSize=12;fontStyle=1" parent="IYKv4-9v9WQwq1Tj8tWP-113" vertex="1">
          <mxGeometry x="140.625" y="28.3376" width="31.250000000000004" height="20.241142857142858" as="geometry" />
        </mxCell>
        <mxCell id="IYKv4-9v9WQwq1Tj8tWP-122" value="FRI" style="strokeColor=none;fillColor=none;fontColor=#999999;fontSize=12;fontStyle=1" parent="IYKv4-9v9WQwq1Tj8tWP-113" vertex="1">
          <mxGeometry x="171.875" y="28.3376" width="31.250000000000004" height="20.241142857142858" as="geometry" />
        </mxCell>
        <mxCell id="IYKv4-9v9WQwq1Tj8tWP-123" value="SAT" style="strokeColor=none;fillColor=none;fontColor=#999999;fontSize=12;fontStyle=1" parent="IYKv4-9v9WQwq1Tj8tWP-113" vertex="1">
          <mxGeometry x="203.12500000000003" y="28.3376" width="31.250000000000004" height="20.241142857142858" as="geometry" />
        </mxCell>
        <mxCell id="IYKv4-9v9WQwq1Tj8tWP-124" value="31" style="strokeColor=none;fillColor=none;fontColor=#999999;fontSize=16" parent="IYKv4-9v9WQwq1Tj8tWP-113" vertex="1">
          <mxGeometry x="15.625000000000002" y="48.578742857142856" width="31.250000000000004" height="20.241142857142858" as="geometry" />
        </mxCell>
        <mxCell id="IYKv4-9v9WQwq1Tj8tWP-125" value="1" style="strokeColor=none;fillColor=none;fontColor=#000000;fontSize=16" parent="IYKv4-9v9WQwq1Tj8tWP-113" vertex="1">
          <mxGeometry x="46.875" y="48.578742857142856" width="31.250000000000004" height="20.241142857142858" as="geometry" />
        </mxCell>
        <mxCell id="IYKv4-9v9WQwq1Tj8tWP-126" value="2" style="strokeColor=none;fillColor=none;fontColor=#000000;fontSize=16" parent="IYKv4-9v9WQwq1Tj8tWP-113" vertex="1">
          <mxGeometry x="78.125" y="48.578742857142856" width="31.250000000000004" height="20.241142857142858" as="geometry" />
        </mxCell>
        <mxCell id="IYKv4-9v9WQwq1Tj8tWP-127" value="3" style="strokeColor=none;fillColor=none;fontColor=#000000;fontSize=16" parent="IYKv4-9v9WQwq1Tj8tWP-113" vertex="1">
          <mxGeometry x="109.37499999999999" y="48.578742857142856" width="31.250000000000004" height="20.241142857142858" as="geometry" />
        </mxCell>
        <mxCell id="IYKv4-9v9WQwq1Tj8tWP-128" value="4" style="strokeColor=none;fillColor=none;fontColor=#000000;fontSize=16" parent="IYKv4-9v9WQwq1Tj8tWP-113" vertex="1">
          <mxGeometry x="140.625" y="48.578742857142856" width="31.250000000000004" height="20.241142857142858" as="geometry" />
        </mxCell>
        <mxCell id="IYKv4-9v9WQwq1Tj8tWP-129" value="5" style="strokeColor=none;fillColor=none;fontColor=#000000;fontSize=16" parent="IYKv4-9v9WQwq1Tj8tWP-113" vertex="1">
          <mxGeometry x="171.875" y="48.578742857142856" width="31.250000000000004" height="20.241142857142858" as="geometry" />
        </mxCell>
        <mxCell id="IYKv4-9v9WQwq1Tj8tWP-130" value="6" style="strokeColor=none;fillColor=none;fontColor=#000000;fontSize=16" parent="IYKv4-9v9WQwq1Tj8tWP-113" vertex="1">
          <mxGeometry x="203.12500000000003" y="48.578742857142856" width="31.250000000000004" height="20.241142857142858" as="geometry" />
        </mxCell>
        <mxCell id="IYKv4-9v9WQwq1Tj8tWP-131" value="7" style="strokeColor=none;fillColor=none;fontColor=#000000;fontSize=16" parent="IYKv4-9v9WQwq1Tj8tWP-113" vertex="1">
          <mxGeometry x="15.625000000000002" y="68.8198857142857" width="31.250000000000004" height="20.241142857142858" as="geometry" />
        </mxCell>
        <mxCell id="IYKv4-9v9WQwq1Tj8tWP-132" value="8" style="strokeColor=none;fillColor=none;fontColor=#000000;fontSize=16" parent="IYKv4-9v9WQwq1Tj8tWP-113" vertex="1">
          <mxGeometry x="46.875" y="68.8198857142857" width="31.250000000000004" height="20.241142857142858" as="geometry" />
        </mxCell>
        <mxCell id="IYKv4-9v9WQwq1Tj8tWP-133" value="9" style="strokeColor=none;fillColor=none;fontColor=#000000;fontSize=16" parent="IYKv4-9v9WQwq1Tj8tWP-113" vertex="1">
          <mxGeometry x="78.125" y="68.8198857142857" width="31.250000000000004" height="20.241142857142858" as="geometry" />
        </mxCell>
        <mxCell id="IYKv4-9v9WQwq1Tj8tWP-134" value="10" style="strokeColor=none;fillColor=none;fontColor=#0057D8;fontSize=16;fontStyle=4" parent="IYKv4-9v9WQwq1Tj8tWP-113" vertex="1">
          <mxGeometry x="109.37499999999999" y="68.8198857142857" width="31.250000000000004" height="20.241142857142858" as="geometry" />
        </mxCell>
        <mxCell id="IYKv4-9v9WQwq1Tj8tWP-135" value="11" style="strokeColor=none;fillColor=#ECEDF0;fontColor=#000000;fontSize=16;rounded=1;arcSize=10" parent="IYKv4-9v9WQwq1Tj8tWP-113" vertex="1">
          <mxGeometry x="140.625" y="68.8198857142857" width="31.250000000000004" height="20.241142857142858" as="geometry" />
        </mxCell>
        <mxCell id="IYKv4-9v9WQwq1Tj8tWP-136" value="12" style="strokeColor=none;fillColor=none;fontColor=#000000;fontSize=16" parent="IYKv4-9v9WQwq1Tj8tWP-113" vertex="1">
          <mxGeometry x="171.875" y="68.8198857142857" width="31.250000000000004" height="20.241142857142858" as="geometry" />
        </mxCell>
        <mxCell id="IYKv4-9v9WQwq1Tj8tWP-137" value="13" style="strokeColor=none;fillColor=none;fontColor=#000000;fontSize=16" parent="IYKv4-9v9WQwq1Tj8tWP-113" vertex="1">
          <mxGeometry x="203.12500000000003" y="68.8198857142857" width="31.250000000000004" height="20.241142857142858" as="geometry" />
        </mxCell>
        <mxCell id="IYKv4-9v9WQwq1Tj8tWP-138" value="14" style="strokeColor=none;fillColor=none;fontColor=#000000;fontSize=16" parent="IYKv4-9v9WQwq1Tj8tWP-113" vertex="1">
          <mxGeometry x="15.625000000000002" y="89.06102857142858" width="31.250000000000004" height="20.241142857142858" as="geometry" />
        </mxCell>
        <mxCell id="IYKv4-9v9WQwq1Tj8tWP-139" value="15" style="strokeColor=none;fillColor=none;fontColor=#000000;fontSize=16" parent="IYKv4-9v9WQwq1Tj8tWP-113" vertex="1">
          <mxGeometry x="46.875" y="89.06102857142858" width="31.250000000000004" height="20.241142857142858" as="geometry" />
        </mxCell>
        <mxCell id="IYKv4-9v9WQwq1Tj8tWP-140" value="16" style="strokeColor=none;fillColor=none;fontColor=#000000;fontSize=16" parent="IYKv4-9v9WQwq1Tj8tWP-113" vertex="1">
          <mxGeometry x="78.125" y="89.06102857142858" width="31.250000000000004" height="20.241142857142858" as="geometry" />
        </mxCell>
        <mxCell id="IYKv4-9v9WQwq1Tj8tWP-141" value="17" style="strokeColor=none;fillColor=none;fontColor=#000000;fontSize=16" parent="IYKv4-9v9WQwq1Tj8tWP-113" vertex="1">
          <mxGeometry x="109.37499999999999" y="89.06102857142858" width="31.250000000000004" height="20.241142857142858" as="geometry" />
        </mxCell>
        <mxCell id="IYKv4-9v9WQwq1Tj8tWP-142" value="18" style="strokeColor=none;fillColor=none;fontColor=#000000;fontSize=16" parent="IYKv4-9v9WQwq1Tj8tWP-113" vertex="1">
          <mxGeometry x="140.625" y="89.06102857142858" width="31.250000000000004" height="20.241142857142858" as="geometry" />
        </mxCell>
        <mxCell id="IYKv4-9v9WQwq1Tj8tWP-143" value="19" style="strokeColor=none;fillColor=none;fontColor=#000000;fontSize=16" parent="IYKv4-9v9WQwq1Tj8tWP-113" vertex="1">
          <mxGeometry x="171.875" y="89.06102857142858" width="31.250000000000004" height="20.241142857142858" as="geometry" />
        </mxCell>
        <mxCell id="IYKv4-9v9WQwq1Tj8tWP-144" value="20" style="strokeColor=none;fillColor=none;fontColor=#000000;fontSize=16" parent="IYKv4-9v9WQwq1Tj8tWP-113" vertex="1">
          <mxGeometry x="203.12500000000003" y="89.06102857142858" width="31.250000000000004" height="20.241142857142858" as="geometry" />
        </mxCell>
        <mxCell id="IYKv4-9v9WQwq1Tj8tWP-145" value="21" style="strokeColor=none;fillColor=none;fontColor=#000000;fontSize=16" parent="IYKv4-9v9WQwq1Tj8tWP-113" vertex="1">
          <mxGeometry x="15.625000000000002" y="109.30217142857143" width="31.250000000000004" height="20.241142857142858" as="geometry" />
        </mxCell>
        <mxCell id="IYKv4-9v9WQwq1Tj8tWP-146" value="22" style="strokeColor=none;fillColor=none;fontColor=#000000;fontSize=16" parent="IYKv4-9v9WQwq1Tj8tWP-113" vertex="1">
          <mxGeometry x="46.875" y="109.30217142857143" width="31.250000000000004" height="20.241142857142858" as="geometry" />
        </mxCell>
        <mxCell id="IYKv4-9v9WQwq1Tj8tWP-147" value="23" style="strokeColor=none;fillColor=none;fontColor=#999999;fontSize=16" parent="IYKv4-9v9WQwq1Tj8tWP-113" vertex="1">
          <mxGeometry x="78.125" y="109.30217142857143" width="31.250000000000004" height="20.241142857142858" as="geometry" />
        </mxCell>
        <mxCell id="IYKv4-9v9WQwq1Tj8tWP-148" value="24" style="strokeColor=none;fillColor=none;fontColor=#000000;fontSize=16" parent="IYKv4-9v9WQwq1Tj8tWP-113" vertex="1">
          <mxGeometry x="109.37499999999999" y="109.30217142857143" width="31.250000000000004" height="20.241142857142858" as="geometry" />
        </mxCell>
        <mxCell id="IYKv4-9v9WQwq1Tj8tWP-149" value="25" style="strokeColor=none;fillColor=none;fontColor=#000000;fontSize=16" parent="IYKv4-9v9WQwq1Tj8tWP-113" vertex="1">
          <mxGeometry x="140.625" y="109.30217142857143" width="31.250000000000004" height="20.241142857142858" as="geometry" />
        </mxCell>
        <mxCell id="IYKv4-9v9WQwq1Tj8tWP-150" value="26" style="strokeColor=none;fillColor=none;fontColor=#000000;fontSize=16" parent="IYKv4-9v9WQwq1Tj8tWP-113" vertex="1">
          <mxGeometry x="171.875" y="109.30217142857143" width="31.250000000000004" height="20.241142857142858" as="geometry" />
        </mxCell>
        <mxCell id="IYKv4-9v9WQwq1Tj8tWP-151" value="27" style="strokeColor=none;fillColor=none;fontColor=#000000;fontSize=16" parent="IYKv4-9v9WQwq1Tj8tWP-113" vertex="1">
          <mxGeometry x="203.12500000000003" y="109.30217142857143" width="31.250000000000004" height="20.241142857142858" as="geometry" />
        </mxCell>
        <mxCell id="IYKv4-9v9WQwq1Tj8tWP-152" value="28" style="strokeColor=none;fillColor=none;fontColor=#000000;fontSize=16" parent="IYKv4-9v9WQwq1Tj8tWP-113" vertex="1">
          <mxGeometry x="15.625000000000002" y="129.54331428571427" width="31.250000000000004" height="20.241142857142858" as="geometry" />
        </mxCell>
        <mxCell id="IYKv4-9v9WQwq1Tj8tWP-153" value="29" style="strokeColor=none;fillColor=none;fontColor=#000000;fontSize=16" parent="IYKv4-9v9WQwq1Tj8tWP-113" vertex="1">
          <mxGeometry x="46.875" y="129.54331428571427" width="31.250000000000004" height="20.241142857142858" as="geometry" />
        </mxCell>
        <mxCell id="IYKv4-9v9WQwq1Tj8tWP-154" value="30" style="strokeColor=none;fillColor=none;fontColor=#000000;fontSize=16" parent="IYKv4-9v9WQwq1Tj8tWP-113" vertex="1">
          <mxGeometry x="78.125" y="129.54331428571427" width="31.250000000000004" height="20.241142857142858" as="geometry" />
        </mxCell>
        <mxCell id="IYKv4-9v9WQwq1Tj8tWP-155" value="1" style="strokeColor=none;fillColor=none;fontColor=#999999;fontSize=16" parent="IYKv4-9v9WQwq1Tj8tWP-113" vertex="1">
          <mxGeometry x="109.37499999999999" y="129.54331428571427" width="31.250000000000004" height="20.241142857142858" as="geometry" />
        </mxCell>
        <mxCell id="IYKv4-9v9WQwq1Tj8tWP-156" value="2" style="strokeColor=none;fillColor=none;fontColor=#999999;fontSize=16" parent="IYKv4-9v9WQwq1Tj8tWP-113" vertex="1">
          <mxGeometry x="140.625" y="129.54331428571427" width="31.250000000000004" height="20.241142857142858" as="geometry" />
        </mxCell>
        <mxCell id="IYKv4-9v9WQwq1Tj8tWP-157" value="3" style="strokeColor=none;fillColor=none;fontColor=#999999;fontSize=16" parent="IYKv4-9v9WQwq1Tj8tWP-113" vertex="1">
          <mxGeometry x="171.875" y="129.54331428571427" width="31.250000000000004" height="20.241142857142858" as="geometry" />
        </mxCell>
        <mxCell id="IYKv4-9v9WQwq1Tj8tWP-158" value="4" style="strokeColor=none;fillColor=none;fontColor=#999999;fontSize=16" parent="IYKv4-9v9WQwq1Tj8tWP-113" vertex="1">
          <mxGeometry x="203.12500000000003" y="129.54331428571427" width="31.250000000000004" height="20.241142857142858" as="geometry" />
        </mxCell>
        <mxCell id="IYKv4-9v9WQwq1Tj8tWP-159" value="5" style="strokeColor=none;fillColor=none;fontColor=#999999;fontSize=16" parent="IYKv4-9v9WQwq1Tj8tWP-113" vertex="1">
          <mxGeometry x="15.625000000000002" y="149.78445714285715" width="31.250000000000004" height="20.241142857142858" as="geometry" />
        </mxCell>
        <mxCell id="IYKv4-9v9WQwq1Tj8tWP-160" value="6" style="strokeColor=none;fillColor=none;fontColor=#999999;fontSize=16" parent="IYKv4-9v9WQwq1Tj8tWP-113" vertex="1">
          <mxGeometry x="46.875" y="149.78445714285715" width="31.250000000000004" height="20.241142857142858" as="geometry" />
        </mxCell>
        <mxCell id="IYKv4-9v9WQwq1Tj8tWP-161" value="7" style="strokeColor=none;fillColor=none;fontColor=#999999;fontSize=16" parent="IYKv4-9v9WQwq1Tj8tWP-113" vertex="1">
          <mxGeometry x="78.125" y="149.78445714285715" width="31.250000000000004" height="20.241142857142858" as="geometry" />
        </mxCell>
        <mxCell id="IYKv4-9v9WQwq1Tj8tWP-162" value="8" style="strokeColor=none;fillColor=none;fontColor=#999999;fontSize=16" parent="IYKv4-9v9WQwq1Tj8tWP-113" vertex="1">
          <mxGeometry x="109.37499999999999" y="149.78445714285715" width="31.250000000000004" height="20.241142857142858" as="geometry" />
        </mxCell>
        <mxCell id="IYKv4-9v9WQwq1Tj8tWP-163" value="9" style="strokeColor=none;fillColor=none;fontColor=#999999;fontSize=16" parent="IYKv4-9v9WQwq1Tj8tWP-113" vertex="1">
          <mxGeometry x="140.625" y="149.78445714285715" width="31.250000000000004" height="20.241142857142858" as="geometry" />
        </mxCell>
        <mxCell id="IYKv4-9v9WQwq1Tj8tWP-164" value="10" style="strokeColor=none;fillColor=none;fontColor=#999999;fontSize=16" parent="IYKv4-9v9WQwq1Tj8tWP-113" vertex="1">
          <mxGeometry x="171.875" y="149.78445714285715" width="31.250000000000004" height="20.241142857142858" as="geometry" />
        </mxCell>
        <mxCell id="IYKv4-9v9WQwq1Tj8tWP-165" value="11" style="strokeColor=none;fillColor=none;fontColor=#999999;fontSize=16" parent="IYKv4-9v9WQwq1Tj8tWP-113" vertex="1">
          <mxGeometry x="203.12500000000003" y="149.78445714285715" width="31.250000000000004" height="20.241142857142858" as="geometry" />
        </mxCell>
        <mxCell id="IYKv4-9v9WQwq1Tj8tWP-167" style="edgeStyle=orthogonalEdgeStyle;rounded=0;orthogonalLoop=1;jettySize=auto;html=1;exitX=1;exitY=0;exitDx=0;exitDy=0;entryX=1;entryY=0.25;entryDx=0;entryDy=0;" parent="IYKv4-9v9WQwq1Tj8tWP-113" source="IYKv4-9v9WQwq1Tj8tWP-116" target="IYKv4-9v9WQwq1Tj8tWP-116" edge="1">
          <mxGeometry relative="1" as="geometry" />
        </mxCell>
        <mxCell id="IYKv4-9v9WQwq1Tj8tWP-179" value="" style="whiteSpace=wrap;html=1;shape=mxgraph.basic.rectCallout;dx=30;dy=15;boundedLbl=1;" parent="1" vertex="1">
          <mxGeometry x="2220" y="985.91" width="250" height="140" as="geometry" />
        </mxCell>
        <mxCell id="IYKv4-9v9WQwq1Tj8tWP-185" value="Типы сообщений. Колонка необходима для фильтрации сообщений. Пункты будут добавляться по мере необходимости." style="rounded=0;whiteSpace=wrap;html=1;" parent="1" vertex="1">
          <mxGeometry x="1370" y="930" width="155" height="78.56" as="geometry" />
        </mxCell>
        <mxCell id="IYKv4-9v9WQwq1Tj8tWP-186" value="" style="edgeStyle=elbowEdgeStyle;elbow=horizontal;endArrow=classic;html=1;curved=0;rounded=0;endSize=8;startSize=8;exitX=1;exitY=0.5;exitDx=0;exitDy=0;entryX=0;entryY=0.5;entryDx=0;entryDy=0;" parent="1" source="IYKv4-9v9WQwq1Tj8tWP-111" target="IYKv4-9v9WQwq1Tj8tWP-187" edge="1">
          <mxGeometry width="50" height="50" relative="1" as="geometry">
            <mxPoint x="1179.9999999999995" y="1223.6750000000002" as="sourcePoint" />
            <mxPoint x="1360" y="1100" as="targetPoint" />
            <Array as="points">
              <mxPoint x="1280" y="1140" />
            </Array>
          </mxGeometry>
        </mxCell>
        <mxCell id="IYKv4-9v9WQwq1Tj8tWP-187" value="Дата сообщений. Поле для фильтрации сообщений по дате. Кнопка календаря справа должна выводить графический календарь для удобного выбора необходимой даты." style="rounded=0;whiteSpace=wrap;html=1;" parent="1" vertex="1">
          <mxGeometry x="1370" y="1025.9099999999999" width="195" height="100" as="geometry" />
        </mxCell>
        <mxCell id="IYKv4-9v9WQwq1Tj8tWP-184" value="" style="edgeStyle=elbowEdgeStyle;elbow=horizontal;endArrow=classic;html=1;curved=0;rounded=0;endSize=8;startSize=8;exitX=0.1;exitY=0.5;exitDx=0;exitDy=0;exitPerimeter=0;entryX=0;entryY=0.5;entryDx=0;entryDy=0;" parent="1" source="IYKv4-9v9WQwq1Tj8tWP-188" target="IYKv4-9v9WQwq1Tj8tWP-185" edge="1">
          <mxGeometry width="50" height="50" relative="1" as="geometry">
            <mxPoint x="1260" y="1050" as="sourcePoint" />
            <mxPoint x="1390" y="920" as="targetPoint" />
            <Array as="points">
              <mxPoint x="1280" y="1000" />
              <mxPoint x="1270" y="1020" />
            </Array>
          </mxGeometry>
        </mxCell>
        <mxCell id="IYKv4-9v9WQwq1Tj8tWP-190" value="" style="endArrow=classic;html=1;rounded=0;exitX=1;exitY=0.5;exitDx=0;exitDy=0;entryX=-0.015;entryY=0.43;entryDx=0;entryDy=0;entryPerimeter=0;" parent="1" source="IYKv4-9v9WQwq1Tj8tWP-187" target="IYKv4-9v9WQwq1Tj8tWP-113" edge="1">
          <mxGeometry width="50" height="50" relative="1" as="geometry">
            <mxPoint x="1620" y="1160" as="sourcePoint" />
            <mxPoint x="1680" y="1100" as="targetPoint" />
          </mxGeometry>
        </mxCell>
        <mxCell id="IYKv4-9v9WQwq1Tj8tWP-191" value="" style="edgeStyle=elbowEdgeStyle;elbow=horizontal;endArrow=classic;html=1;curved=0;rounded=0;endSize=8;startSize=8;exitX=1;exitY=0.5;exitDx=0;exitDy=0;entryX=0;entryY=0.5;entryDx=0;entryDy=0;" parent="1" target="IYKv4-9v9WQwq1Tj8tWP-192" edge="1">
          <mxGeometry width="50" height="50" relative="1" as="geometry">
            <mxPoint x="1210" y="1254" as="sourcePoint" />
            <mxPoint x="1360" y="1170" as="targetPoint" />
            <Array as="points">
              <mxPoint x="1280" y="1210" />
            </Array>
          </mxGeometry>
        </mxCell>
        <mxCell id="IYKv4-9v9WQwq1Tj8tWP-192" value="Сообщение. Поле для фильтрации сообщений по типам. Здесь должен быть выпадающий список. Какие Варианты будут приходить с базы данных. Зависит напрямую от выбранных типов сообщений." style="rounded=0;whiteSpace=wrap;html=1;" parent="1" vertex="1">
          <mxGeometry x="1370" y="1148.56" width="170" height="121.44" as="geometry" />
        </mxCell>
        <mxCell id="IYKv4-9v9WQwq1Tj8tWP-193" value="" style="edgeStyle=elbowEdgeStyle;elbow=horizontal;endArrow=classic;html=1;curved=0;rounded=0;endSize=8;startSize=8;exitX=1;exitY=0.5;exitDx=0;exitDy=0;entryX=0;entryY=0.5;entryDx=0;entryDy=0;" parent="1" source="IYKv4-9v9WQwq1Tj8tWP-106" target="IYKv4-9v9WQwq1Tj8tWP-194" edge="1">
          <mxGeometry width="50" height="50" relative="1" as="geometry">
            <mxPoint x="1200" y="1394" as="sourcePoint" />
            <mxPoint x="1350" y="1310" as="targetPoint" />
            <Array as="points">
              <mxPoint x="1290" y="1330" />
            </Array>
          </mxGeometry>
        </mxCell>
        <mxCell id="IYKv4-9v9WQwq1Tj8tWP-194" value="Кнопка, которая должна применить настройки. При нажатии происходит обновление окна для вывода сообщений." style="rounded=0;whiteSpace=wrap;html=1;" parent="1" vertex="1">
          <mxGeometry x="1368.75" y="1300" width="172.5" height="80" as="geometry" />
        </mxCell>
        <mxCell id="IYKv4-9v9WQwq1Tj8tWP-196" value="" style="edgeStyle=elbowEdgeStyle;elbow=horizontal;endArrow=classic;html=1;curved=0;rounded=0;endSize=8;startSize=8;exitX=1;exitY=0.5;exitDx=0;exitDy=0;entryX=0;entryY=0.5;entryDx=0;entryDy=0;" parent="1" source="IYKv4-9v9WQwq1Tj8tWP-195" target="IYKv4-9v9WQwq1Tj8tWP-197" edge="1">
          <mxGeometry width="50" height="50" relative="1" as="geometry">
            <mxPoint x="1219" y="1430" as="sourcePoint" />
            <mxPoint x="1350" y="1425" as="targetPoint" />
            <Array as="points">
              <mxPoint x="1280" y="1420" />
            </Array>
          </mxGeometry>
        </mxCell>
        <mxCell id="IYKv4-9v9WQwq1Tj8tWP-197" value="Кнопка, которая экспортирует все сообщения в текстовой файл и сохраняет пользователю на компьютер." style="rounded=0;whiteSpace=wrap;html=1;" parent="1" vertex="1">
          <mxGeometry x="1368.75" y="1400" width="172.5" height="60" as="geometry" />
        </mxCell>
        <mxCell id="IYKv4-9v9WQwq1Tj8tWP-198" value="" style="strokeWidth=1;shadow=0;dashed=0;align=left;html=1;shape=mxgraph.mockup.containers.browserWindow;rSize=0;strokeColor=#666666;strokeColor2=#008cff;strokeColor3=#c4c4c4;mainText=,;recursiveResize=0;" parent="1" vertex="1">
          <mxGeometry x="-79" y="1680" width="1320" height="720" as="geometry" />
        </mxCell>
        <mxCell id="IYKv4-9v9WQwq1Tj8tWP-199" value="Page 1" style="strokeWidth=1;shadow=0;dashed=0;align=center;html=1;shape=mxgraph.mockup.containers.anchor;fontSize=17;fontColor=#666666;align=left;whiteSpace=wrap;" parent="IYKv4-9v9WQwq1Tj8tWP-198" vertex="1">
          <mxGeometry x="60" y="12" width="110" height="26" as="geometry" />
        </mxCell>
        <mxCell id="IYKv4-9v9WQwq1Tj8tWP-200" value="https://www.hostname/admin/key/statistics" style="strokeWidth=1;shadow=0;dashed=0;align=center;html=1;shape=mxgraph.mockup.containers.anchor;rSize=0;fontSize=17;fontColor=#666666;align=left;" parent="IYKv4-9v9WQwq1Tj8tWP-198" vertex="1">
          <mxGeometry x="130" y="60" width="660" height="26" as="geometry" />
        </mxCell>
        <mxCell id="IYKv4-9v9WQwq1Tj8tWP-201" value="Token" style="html=1;shadow=0;dashed=0;shape=mxgraph.bootstrap.rrect;rSize=5;strokeColor=#CED4DA;html=1;whiteSpace=wrap;fillColor=#FFFFFF;fontColor=#7D868C;align=left;spacingLeft=0;spacing=15;fontSize=14;" parent="IYKv4-9v9WQwq1Tj8tWP-198" vertex="1">
          <mxGeometry x="920" y="120" width="388" height="20" as="geometry" />
        </mxCell>
        <mxCell id="IYKv4-9v9WQwq1Tj8tWP-202" value="DISSABLE" style="html=1;shadow=0;dashed=0;shape=mxgraph.bootstrap.rightButton;strokeColor=#b85450;fillColor=#f8cecc;rSize=5;perimeter=none;whiteSpace=wrap;resizeHeight=1;fontSize=14;labelBackgroundColor=none;" parent="IYKv4-9v9WQwq1Tj8tWP-201" vertex="1">
          <mxGeometry x="1" width="81" height="20" relative="1" as="geometry">
            <mxPoint x="-81" as="offset" />
          </mxGeometry>
        </mxCell>
        <mxCell id="IYKv4-9v9WQwq1Tj8tWP-203" value="" style="line;strokeWidth=2;html=1;textOpacity=20;" parent="IYKv4-9v9WQwq1Tj8tWP-198" vertex="1">
          <mxGeometry x="10" y="150" width="1298" height="10" as="geometry" />
        </mxCell>
        <mxCell id="IYKv4-9v9WQwq1Tj8tWP-204" value="&lt;font style=&quot;font-size: 15px;&quot;&gt;Administration panel | User: username&lt;/font&gt;" style="text;html=1;align=left;verticalAlign=middle;whiteSpace=wrap;rounded=0;" parent="IYKv4-9v9WQwq1Tj8tWP-198" vertex="1">
          <mxGeometry x="50" y="120" width="320" height="30" as="geometry" />
        </mxCell>
        <mxCell id="IYKv4-9v9WQwq1Tj8tWP-211" value="" style="group" parent="IYKv4-9v9WQwq1Tj8tWP-198" vertex="1" connectable="0">
          <mxGeometry x="34" y="180" width="1230" height="40" as="geometry" />
        </mxCell>
        <mxCell id="IYKv4-9v9WQwq1Tj8tWP-212" value="LOGS" style="strokeWidth=1;shadow=0;dashed=0;align=center;html=1;shape=mxgraph.mockup.buttons.button;strokeColor=#666666;fontColor=#ffffff;mainText=;buttonStyle=round;fontSize=17;fontStyle=1;fillColor=#872A13;whiteSpace=wrap;" parent="IYKv4-9v9WQwq1Tj8tWP-211" vertex="1">
          <mxGeometry width="180" height="40" as="geometry" />
        </mxCell>
        <mxCell id="IYKv4-9v9WQwq1Tj8tWP-213" value="STATISTICS" style="strokeWidth=1;shadow=0;dashed=0;align=center;html=1;shape=mxgraph.mockup.buttons.button;strokeColor=#666666;fontColor=#ffffff;mainText=;buttonStyle=round;fontSize=17;fontStyle=1;fillColor=#007FFF;whiteSpace=wrap;" parent="IYKv4-9v9WQwq1Tj8tWP-211" vertex="1">
          <mxGeometry x="210" width="180" height="40" as="geometry" />
        </mxCell>
        <mxCell id="IYKv4-9v9WQwq1Tj8tWP-214" value="DASHBOADS BASE" style="strokeWidth=1;shadow=0;dashed=0;align=center;html=1;shape=mxgraph.mockup.buttons.button;strokeColor=#666666;fontColor=#ffffff;mainText=;buttonStyle=round;fontSize=17;fontStyle=1;fillColor=#872A13;whiteSpace=wrap;" parent="IYKv4-9v9WQwq1Tj8tWP-211" vertex="1">
          <mxGeometry x="420" width="180" height="40" as="geometry" />
        </mxCell>
        <mxCell id="IYKv4-9v9WQwq1Tj8tWP-215" value="USERS" style="strokeWidth=1;shadow=0;dashed=0;align=center;html=1;shape=mxgraph.mockup.buttons.button;strokeColor=#666666;fontColor=#ffffff;mainText=;buttonStyle=round;fontSize=17;fontStyle=1;fillColor=#872A13;whiteSpace=wrap;" parent="IYKv4-9v9WQwq1Tj8tWP-211" vertex="1">
          <mxGeometry x="646" width="180" height="40" as="geometry" />
        </mxCell>
        <mxCell id="IYKv4-9v9WQwq1Tj8tWP-216" value="POSTS" style="strokeWidth=1;shadow=0;dashed=0;align=center;html=1;shape=mxgraph.mockup.buttons.button;strokeColor=#666666;fontColor=#ffffff;mainText=;buttonStyle=round;fontSize=17;fontStyle=1;fillColor=#872A13;whiteSpace=wrap;" parent="IYKv4-9v9WQwq1Tj8tWP-211" vertex="1">
          <mxGeometry x="856" width="180" height="40" as="geometry" />
        </mxCell>
        <mxCell id="IYKv4-9v9WQwq1Tj8tWP-217" value="STATISTICS" style="strokeWidth=1;shadow=0;dashed=0;align=center;html=1;shape=mxgraph.mockup.buttons.button;strokeColor=#666666;fontColor=#ffffff;mainText=;buttonStyle=round;fontSize=17;fontStyle=1;fillColor=#872A13;whiteSpace=wrap;" parent="IYKv4-9v9WQwq1Tj8tWP-211" vertex="1">
          <mxGeometry x="1066" width="180" height="40" as="geometry" />
        </mxCell>
        <mxCell id="LnX6BK-S7mx_78NqDa5w-41" value="" style="verticalLabelPosition=bottom;shadow=0;dashed=0;align=center;html=1;verticalAlign=top;strokeWidth=1;shape=mxgraph.mockup.graphics.columnChart;strokeColor=none;strokeColor2=none;strokeColor3=#666666;fillColor2=#008cff;fillColor3=#dddddd;" vertex="1" parent="IYKv4-9v9WQwq1Tj8tWP-198">
          <mxGeometry x="774" y="270" width="490" height="330" as="geometry" />
        </mxCell>
        <mxCell id="LnX6BK-S7mx_78NqDa5w-43" value="Option 1" style="strokeWidth=1;shadow=0;dashed=0;align=center;html=1;shape=mxgraph.mockup.forms.comboBox;strokeColor=#999999;fillColor=#ddeeff;align=left;fillColor2=#aaddff;mainText=;fontColor=#666666;fontSize=17;spacingLeft=3;" vertex="1" parent="IYKv4-9v9WQwq1Tj8tWP-198">
          <mxGeometry x="1109" y="640" width="150" height="31" as="geometry" />
        </mxCell>
        <mxCell id="IYKv4-9v9WQwq1Tj8tWP-234" value="" style="strokeWidth=1;shadow=0;dashed=0;align=left;html=1;shape=mxgraph.mockup.containers.browserWindow;rSize=0;strokeColor=#666666;strokeColor2=#008cff;strokeColor3=#c4c4c4;mainText=,;recursiveResize=0;" parent="1" vertex="1">
          <mxGeometry x="-79" y="2680" width="1320" height="720" as="geometry" />
        </mxCell>
        <mxCell id="IYKv4-9v9WQwq1Tj8tWP-235" value="Page 1" style="strokeWidth=1;shadow=0;dashed=0;align=center;html=1;shape=mxgraph.mockup.containers.anchor;fontSize=17;fontColor=#666666;align=left;whiteSpace=wrap;" parent="IYKv4-9v9WQwq1Tj8tWP-234" vertex="1">
          <mxGeometry x="60" y="12" width="110" height="26" as="geometry" />
        </mxCell>
        <mxCell id="IYKv4-9v9WQwq1Tj8tWP-236" value="&lt;span style=&quot;color: rgba(0, 0, 0, 0); font-family: monospace; font-size: 0px;&quot;&gt;%3CmxGraphModel%3E%3Croot%3E%3CmxCell%20id%3D%220%22%2F%3E%3CmxCell%20id%3D%221%22%20parent%3D%220%22%2F%3E%3CmxCell%20id%3D%222%22%20value%3D%22https%3A%2F%2Fwww.hostname%2Fadmin%2Fkey%2Fpanel%22%20style%3D%22strokeWidth%3D1%3Bshadow%3D0%3Bdashed%3D0%3Balign%3Dcenter%3Bhtml%3D1%3Bshape%3Dmxgraph.mockup.containers.anchor%3BrSize%3D0%3BfontSize%3D17%3BfontColor%3D%23666666%3Balign%3Dleft%3B%22%20vertex%3D%221%22%20parent%3D%221%22%3E%3CmxGeometry%20x%3D%2250%22%20y%3D%223740%22%20width%3D%22580%22%20height%3D%2226%22%20as%3D%22geometry%22%2F%3E%3C%2FmxCell%3E%3C%2Froot%3E%3C%2FmxGraphModel%3E&lt;/span&gt;" style="strokeWidth=1;shadow=0;dashed=0;align=center;html=1;shape=mxgraph.mockup.containers.anchor;rSize=0;fontSize=17;fontColor=#666666;align=left;" parent="IYKv4-9v9WQwq1Tj8tWP-234" vertex="1">
          <mxGeometry x="130" y="60" width="570" height="26" as="geometry" />
        </mxCell>
        <mxCell id="IYKv4-9v9WQwq1Tj8tWP-237" value="Token" style="html=1;shadow=0;dashed=0;shape=mxgraph.bootstrap.rrect;rSize=5;strokeColor=#CED4DA;html=1;whiteSpace=wrap;fillColor=#FFFFFF;fontColor=#7D868C;align=left;spacingLeft=0;spacing=15;fontSize=14;" parent="IYKv4-9v9WQwq1Tj8tWP-234" vertex="1">
          <mxGeometry x="920" y="120" width="388" height="20" as="geometry" />
        </mxCell>
        <mxCell id="IYKv4-9v9WQwq1Tj8tWP-238" value="DISSABLE" style="html=1;shadow=0;dashed=0;shape=mxgraph.bootstrap.rightButton;strokeColor=#b85450;fillColor=#f8cecc;rSize=5;perimeter=none;whiteSpace=wrap;resizeHeight=1;fontSize=14;labelBackgroundColor=none;" parent="IYKv4-9v9WQwq1Tj8tWP-237" vertex="1">
          <mxGeometry x="1" width="81" height="20" relative="1" as="geometry">
            <mxPoint x="-81" as="offset" />
          </mxGeometry>
        </mxCell>
        <mxCell id="IYKv4-9v9WQwq1Tj8tWP-239" value="" style="line;strokeWidth=2;html=1;textOpacity=20;" parent="IYKv4-9v9WQwq1Tj8tWP-234" vertex="1">
          <mxGeometry x="10" y="150" width="1298" height="10" as="geometry" />
        </mxCell>
        <mxCell id="IYKv4-9v9WQwq1Tj8tWP-240" value="&lt;font style=&quot;font-size: 15px;&quot;&gt;Administration panel | User: username&lt;/font&gt;" style="text;html=1;align=left;verticalAlign=middle;whiteSpace=wrap;rounded=0;" parent="IYKv4-9v9WQwq1Tj8tWP-234" vertex="1">
          <mxGeometry x="50" y="120" width="320" height="30" as="geometry" />
        </mxCell>
        <mxCell id="IYKv4-9v9WQwq1Tj8tWP-241" value="" style="group" parent="IYKv4-9v9WQwq1Tj8tWP-234" vertex="1" connectable="0">
          <mxGeometry x="34" y="180" width="1230" height="40" as="geometry" />
        </mxCell>
        <mxCell id="IYKv4-9v9WQwq1Tj8tWP-242" value="LOGS" style="strokeWidth=1;shadow=0;dashed=0;align=center;html=1;shape=mxgraph.mockup.buttons.button;strokeColor=#666666;fontColor=#ffffff;mainText=;buttonStyle=round;fontSize=17;fontStyle=1;fillColor=#872A13;whiteSpace=wrap;" parent="IYKv4-9v9WQwq1Tj8tWP-241" vertex="1">
          <mxGeometry width="180" height="40" as="geometry" />
        </mxCell>
        <mxCell id="IYKv4-9v9WQwq1Tj8tWP-243" value="STATISTICS" style="strokeWidth=1;shadow=0;dashed=0;align=center;html=1;shape=mxgraph.mockup.buttons.button;strokeColor=#666666;fontColor=#ffffff;mainText=;buttonStyle=round;fontSize=17;fontStyle=1;fillColor=#872A13;whiteSpace=wrap;" parent="IYKv4-9v9WQwq1Tj8tWP-241" vertex="1">
          <mxGeometry x="210" width="180" height="40" as="geometry" />
        </mxCell>
        <mxCell id="IYKv4-9v9WQwq1Tj8tWP-244" value="DATABASE" style="strokeWidth=1;shadow=0;dashed=0;align=center;html=1;shape=mxgraph.mockup.buttons.button;strokeColor=#666666;fontColor=#ffffff;mainText=;buttonStyle=round;fontSize=17;fontStyle=1;fillColor=#007FFF;whiteSpace=wrap;" parent="IYKv4-9v9WQwq1Tj8tWP-241" vertex="1">
          <mxGeometry x="420" width="180" height="40" as="geometry" />
        </mxCell>
        <mxCell id="IYKv4-9v9WQwq1Tj8tWP-245" value="USERS" style="strokeWidth=1;shadow=0;dashed=0;align=center;html=1;shape=mxgraph.mockup.buttons.button;strokeColor=#666666;fontColor=#ffffff;mainText=;buttonStyle=round;fontSize=17;fontStyle=1;fillColor=#872A13;whiteSpace=wrap;" parent="IYKv4-9v9WQwq1Tj8tWP-241" vertex="1">
          <mxGeometry x="646" width="180" height="40" as="geometry" />
        </mxCell>
        <mxCell id="IYKv4-9v9WQwq1Tj8tWP-246" value="POSTS" style="strokeWidth=1;shadow=0;dashed=0;align=center;html=1;shape=mxgraph.mockup.buttons.button;strokeColor=#666666;fontColor=#ffffff;mainText=;buttonStyle=round;fontSize=17;fontStyle=1;fillColor=#872A13;whiteSpace=wrap;" parent="IYKv4-9v9WQwq1Tj8tWP-241" vertex="1">
          <mxGeometry x="856" width="180" height="40" as="geometry" />
        </mxCell>
        <mxCell id="IYKv4-9v9WQwq1Tj8tWP-247" value="STATUS" style="strokeWidth=1;shadow=0;dashed=0;align=center;html=1;shape=mxgraph.mockup.buttons.button;strokeColor=#666666;fontColor=#ffffff;mainText=;buttonStyle=round;fontSize=17;fontStyle=1;fillColor=#872A13;whiteSpace=wrap;" parent="IYKv4-9v9WQwq1Tj8tWP-241" vertex="1">
          <mxGeometry x="1066" width="180" height="40" as="geometry" />
        </mxCell>
        <mxCell id="IYKv4-9v9WQwq1Tj8tWP-398" value="https://www.hostname/admin/key/panel" style="strokeWidth=1;shadow=0;dashed=0;align=center;html=1;shape=mxgraph.mockup.containers.anchor;rSize=0;fontSize=17;fontColor=#666666;align=left;" parent="IYKv4-9v9WQwq1Tj8tWP-234" vertex="1">
          <mxGeometry x="139" y="60" width="580" height="26" as="geometry" />
        </mxCell>
        <mxCell id="IYKv4-9v9WQwq1Tj8tWP-248" value="" style="strokeWidth=1;shadow=0;dashed=0;align=left;html=1;shape=mxgraph.mockup.containers.browserWindow;rSize=0;strokeColor=#666666;strokeColor2=#008cff;strokeColor3=#c4c4c4;mainText=,;recursiveResize=0;" parent="1" vertex="1">
          <mxGeometry x="-80" y="3680" width="1320" height="720" as="geometry" />
        </mxCell>
        <mxCell id="IYKv4-9v9WQwq1Tj8tWP-249" value="Page 1" style="strokeWidth=1;shadow=0;dashed=0;align=center;html=1;shape=mxgraph.mockup.containers.anchor;fontSize=17;fontColor=#666666;align=left;whiteSpace=wrap;" parent="IYKv4-9v9WQwq1Tj8tWP-248" vertex="1">
          <mxGeometry x="60" y="12" width="110" height="26" as="geometry" />
        </mxCell>
        <mxCell id="IYKv4-9v9WQwq1Tj8tWP-250" value="https://www.hostname/admin/key/panel" style="strokeWidth=1;shadow=0;dashed=0;align=center;html=1;shape=mxgraph.mockup.containers.anchor;rSize=0;fontSize=17;fontColor=#666666;align=left;" parent="IYKv4-9v9WQwq1Tj8tWP-248" vertex="1">
          <mxGeometry x="130" y="60" width="580" height="26" as="geometry" />
        </mxCell>
        <mxCell id="IYKv4-9v9WQwq1Tj8tWP-251" value="Token" style="html=1;shadow=0;dashed=0;shape=mxgraph.bootstrap.rrect;rSize=5;strokeColor=#CED4DA;html=1;whiteSpace=wrap;fillColor=#FFFFFF;fontColor=#7D868C;align=left;spacingLeft=0;spacing=15;fontSize=14;" parent="IYKv4-9v9WQwq1Tj8tWP-248" vertex="1">
          <mxGeometry x="920" y="120" width="388" height="20" as="geometry" />
        </mxCell>
        <mxCell id="IYKv4-9v9WQwq1Tj8tWP-252" value="DISSABLE" style="html=1;shadow=0;dashed=0;shape=mxgraph.bootstrap.rightButton;strokeColor=#b85450;fillColor=#f8cecc;rSize=5;perimeter=none;whiteSpace=wrap;resizeHeight=1;fontSize=14;labelBackgroundColor=none;" parent="IYKv4-9v9WQwq1Tj8tWP-251" vertex="1">
          <mxGeometry x="1" width="81" height="20" relative="1" as="geometry">
            <mxPoint x="-81" as="offset" />
          </mxGeometry>
        </mxCell>
        <mxCell id="IYKv4-9v9WQwq1Tj8tWP-253" value="" style="line;strokeWidth=2;html=1;textOpacity=20;" parent="IYKv4-9v9WQwq1Tj8tWP-248" vertex="1">
          <mxGeometry x="10" y="150" width="1298" height="10" as="geometry" />
        </mxCell>
        <mxCell id="IYKv4-9v9WQwq1Tj8tWP-254" value="&lt;font style=&quot;font-size: 15px;&quot;&gt;Administration panel | User: username&lt;/font&gt;" style="text;html=1;align=left;verticalAlign=middle;whiteSpace=wrap;rounded=0;" parent="IYKv4-9v9WQwq1Tj8tWP-248" vertex="1">
          <mxGeometry x="50" y="120" width="320" height="30" as="geometry" />
        </mxCell>
        <mxCell id="IYKv4-9v9WQwq1Tj8tWP-255" value="" style="group" parent="IYKv4-9v9WQwq1Tj8tWP-248" vertex="1" connectable="0">
          <mxGeometry x="34" y="180" width="1230" height="40" as="geometry" />
        </mxCell>
        <mxCell id="IYKv4-9v9WQwq1Tj8tWP-256" value="LOGS" style="strokeWidth=1;shadow=0;dashed=0;align=center;html=1;shape=mxgraph.mockup.buttons.button;strokeColor=#666666;fontColor=#ffffff;mainText=;buttonStyle=round;fontSize=17;fontStyle=1;fillColor=#872A13;whiteSpace=wrap;" parent="IYKv4-9v9WQwq1Tj8tWP-255" vertex="1">
          <mxGeometry width="180" height="40" as="geometry" />
        </mxCell>
        <mxCell id="IYKv4-9v9WQwq1Tj8tWP-257" value="STATISTICS" style="strokeWidth=1;shadow=0;dashed=0;align=center;html=1;shape=mxgraph.mockup.buttons.button;strokeColor=#666666;fontColor=#ffffff;mainText=;buttonStyle=round;fontSize=17;fontStyle=1;fillColor=#872A13;whiteSpace=wrap;" parent="IYKv4-9v9WQwq1Tj8tWP-255" vertex="1">
          <mxGeometry x="210" width="180" height="40" as="geometry" />
        </mxCell>
        <mxCell id="IYKv4-9v9WQwq1Tj8tWP-258" value="DATABASE" style="strokeWidth=1;shadow=0;dashed=0;align=center;html=1;shape=mxgraph.mockup.buttons.button;strokeColor=#666666;fontColor=#ffffff;mainText=;buttonStyle=round;fontSize=17;fontStyle=1;fillColor=#872A13;whiteSpace=wrap;" parent="IYKv4-9v9WQwq1Tj8tWP-255" vertex="1">
          <mxGeometry x="420" width="180" height="40" as="geometry" />
        </mxCell>
        <mxCell id="IYKv4-9v9WQwq1Tj8tWP-259" value="USERS" style="strokeWidth=1;shadow=0;dashed=0;align=center;html=1;shape=mxgraph.mockup.buttons.button;strokeColor=#666666;fontColor=#ffffff;mainText=;buttonStyle=round;fontSize=17;fontStyle=1;fillColor=#007FFF;whiteSpace=wrap;" parent="IYKv4-9v9WQwq1Tj8tWP-255" vertex="1">
          <mxGeometry x="646" width="180" height="40" as="geometry" />
        </mxCell>
        <mxCell id="IYKv4-9v9WQwq1Tj8tWP-260" value="POSTS" style="strokeWidth=1;shadow=0;dashed=0;align=center;html=1;shape=mxgraph.mockup.buttons.button;strokeColor=#666666;fontColor=#ffffff;mainText=;buttonStyle=round;fontSize=17;fontStyle=1;fillColor=#872A13;whiteSpace=wrap;" parent="IYKv4-9v9WQwq1Tj8tWP-255" vertex="1">
          <mxGeometry x="856" width="180" height="40" as="geometry" />
        </mxCell>
        <mxCell id="IYKv4-9v9WQwq1Tj8tWP-261" value="STATUS" style="strokeWidth=1;shadow=0;dashed=0;align=center;html=1;shape=mxgraph.mockup.buttons.button;strokeColor=#666666;fontColor=#ffffff;mainText=;buttonStyle=round;fontSize=17;fontStyle=1;fillColor=#872A13;whiteSpace=wrap;" parent="IYKv4-9v9WQwq1Tj8tWP-255" vertex="1">
          <mxGeometry x="1066" width="180" height="40" as="geometry" />
        </mxCell>
        <mxCell id="IYKv4-9v9WQwq1Tj8tWP-276" value="" style="strokeWidth=1;shadow=0;dashed=0;align=left;html=1;shape=mxgraph.mockup.containers.browserWindow;rSize=0;strokeColor=#666666;strokeColor2=#008cff;strokeColor3=#c4c4c4;mainText=,;recursiveResize=0;" parent="1" vertex="1">
          <mxGeometry x="-79" y="4676" width="1320" height="720" as="geometry" />
        </mxCell>
        <mxCell id="IYKv4-9v9WQwq1Tj8tWP-277" value="Page 1" style="strokeWidth=1;shadow=0;dashed=0;align=center;html=1;shape=mxgraph.mockup.containers.anchor;fontSize=17;fontColor=#666666;align=left;whiteSpace=wrap;" parent="IYKv4-9v9WQwq1Tj8tWP-276" vertex="1">
          <mxGeometry x="60" y="12" width="110" height="26" as="geometry" />
        </mxCell>
        <mxCell id="IYKv4-9v9WQwq1Tj8tWP-278" value="https://www.hostname/admin/key/panel" style="strokeWidth=1;shadow=0;dashed=0;align=center;html=1;shape=mxgraph.mockup.containers.anchor;rSize=0;fontSize=17;fontColor=#666666;align=left;" parent="IYKv4-9v9WQwq1Tj8tWP-276" vertex="1">
          <mxGeometry x="130" y="60" width="250" height="26" as="geometry" />
        </mxCell>
        <mxCell id="IYKv4-9v9WQwq1Tj8tWP-279" value="Token" style="html=1;shadow=0;dashed=0;shape=mxgraph.bootstrap.rrect;rSize=5;strokeColor=#CED4DA;html=1;whiteSpace=wrap;fillColor=#FFFFFF;fontColor=#7D868C;align=left;spacingLeft=0;spacing=15;fontSize=14;" parent="IYKv4-9v9WQwq1Tj8tWP-276" vertex="1">
          <mxGeometry x="920" y="120" width="388" height="20" as="geometry" />
        </mxCell>
        <mxCell id="IYKv4-9v9WQwq1Tj8tWP-280" value="DISSABLE" style="html=1;shadow=0;dashed=0;shape=mxgraph.bootstrap.rightButton;strokeColor=#b85450;fillColor=#f8cecc;rSize=5;perimeter=none;whiteSpace=wrap;resizeHeight=1;fontSize=14;labelBackgroundColor=none;" parent="IYKv4-9v9WQwq1Tj8tWP-279" vertex="1">
          <mxGeometry x="1" width="81" height="20" relative="1" as="geometry">
            <mxPoint x="-81" as="offset" />
          </mxGeometry>
        </mxCell>
        <mxCell id="IYKv4-9v9WQwq1Tj8tWP-281" value="" style="line;strokeWidth=2;html=1;textOpacity=20;" parent="IYKv4-9v9WQwq1Tj8tWP-276" vertex="1">
          <mxGeometry x="10" y="150" width="1298" height="10" as="geometry" />
        </mxCell>
        <mxCell id="IYKv4-9v9WQwq1Tj8tWP-282" value="&lt;font style=&quot;font-size: 15px;&quot;&gt;Administration panel | User: username&lt;/font&gt;" style="text;html=1;align=left;verticalAlign=middle;whiteSpace=wrap;rounded=0;" parent="IYKv4-9v9WQwq1Tj8tWP-276" vertex="1">
          <mxGeometry x="50" y="120" width="320" height="30" as="geometry" />
        </mxCell>
        <mxCell id="IYKv4-9v9WQwq1Tj8tWP-283" value="" style="group" parent="IYKv4-9v9WQwq1Tj8tWP-276" vertex="1" connectable="0">
          <mxGeometry x="34" y="180" width="1230" height="40" as="geometry" />
        </mxCell>
        <mxCell id="IYKv4-9v9WQwq1Tj8tWP-284" value="LOGS" style="strokeWidth=1;shadow=0;dashed=0;align=center;html=1;shape=mxgraph.mockup.buttons.button;strokeColor=#666666;fontColor=#ffffff;mainText=;buttonStyle=round;fontSize=17;fontStyle=1;fillColor=#872A13;whiteSpace=wrap;" parent="IYKv4-9v9WQwq1Tj8tWP-283" vertex="1">
          <mxGeometry width="180" height="40" as="geometry" />
        </mxCell>
        <mxCell id="IYKv4-9v9WQwq1Tj8tWP-285" value="STATISTICS" style="strokeWidth=1;shadow=0;dashed=0;align=center;html=1;shape=mxgraph.mockup.buttons.button;strokeColor=#666666;fontColor=#ffffff;mainText=;buttonStyle=round;fontSize=17;fontStyle=1;fillColor=#872A13;whiteSpace=wrap;" parent="IYKv4-9v9WQwq1Tj8tWP-283" vertex="1">
          <mxGeometry x="210" width="180" height="40" as="geometry" />
        </mxCell>
        <mxCell id="IYKv4-9v9WQwq1Tj8tWP-286" value="DATABASE" style="strokeWidth=1;shadow=0;dashed=0;align=center;html=1;shape=mxgraph.mockup.buttons.button;strokeColor=#666666;fontColor=#ffffff;mainText=;buttonStyle=round;fontSize=17;fontStyle=1;fillColor=#872A13;whiteSpace=wrap;" parent="IYKv4-9v9WQwq1Tj8tWP-283" vertex="1">
          <mxGeometry x="420" width="180" height="40" as="geometry" />
        </mxCell>
        <mxCell id="IYKv4-9v9WQwq1Tj8tWP-287" value="USERS" style="strokeWidth=1;shadow=0;dashed=0;align=center;html=1;shape=mxgraph.mockup.buttons.button;strokeColor=#666666;fontColor=#ffffff;mainText=;buttonStyle=round;fontSize=17;fontStyle=1;fillColor=#872A13;whiteSpace=wrap;" parent="IYKv4-9v9WQwq1Tj8tWP-283" vertex="1">
          <mxGeometry x="646" width="180" height="40" as="geometry" />
        </mxCell>
        <mxCell id="IYKv4-9v9WQwq1Tj8tWP-288" value="POSTS" style="strokeWidth=1;shadow=0;dashed=0;align=center;html=1;shape=mxgraph.mockup.buttons.button;strokeColor=#666666;fontColor=#ffffff;mainText=;buttonStyle=round;fontSize=17;fontStyle=1;fillColor=#007FFF;whiteSpace=wrap;" parent="IYKv4-9v9WQwq1Tj8tWP-283" vertex="1">
          <mxGeometry x="856" width="180" height="40" as="geometry" />
        </mxCell>
        <mxCell id="IYKv4-9v9WQwq1Tj8tWP-289" value="STATUS" style="strokeWidth=1;shadow=0;dashed=0;align=center;html=1;shape=mxgraph.mockup.buttons.button;strokeColor=#666666;fontColor=#ffffff;mainText=;buttonStyle=round;fontSize=17;fontStyle=1;fillColor=#872A13;whiteSpace=wrap;" parent="IYKv4-9v9WQwq1Tj8tWP-283" vertex="1">
          <mxGeometry x="1066" width="180" height="40" as="geometry" />
        </mxCell>
        <mxCell id="IYKv4-9v9WQwq1Tj8tWP-290" value="" style="strokeWidth=1;shadow=0;dashed=0;align=left;html=1;shape=mxgraph.mockup.containers.browserWindow;rSize=0;strokeColor=#666666;strokeColor2=#008cff;strokeColor3=#c4c4c4;mainText=,;recursiveResize=0;" parent="1" vertex="1">
          <mxGeometry x="-80" y="5680" width="1320" height="720" as="geometry" />
        </mxCell>
        <mxCell id="IYKv4-9v9WQwq1Tj8tWP-291" value="Page 1" style="strokeWidth=1;shadow=0;dashed=0;align=center;html=1;shape=mxgraph.mockup.containers.anchor;fontSize=17;fontColor=#666666;align=left;whiteSpace=wrap;" parent="IYKv4-9v9WQwq1Tj8tWP-290" vertex="1">
          <mxGeometry x="60" y="12" width="110" height="26" as="geometry" />
        </mxCell>
        <mxCell id="IYKv4-9v9WQwq1Tj8tWP-292" value="https://www.hostname/admin/key/panel" style="strokeWidth=1;shadow=0;dashed=0;align=center;html=1;shape=mxgraph.mockup.containers.anchor;rSize=0;fontSize=17;fontColor=#666666;align=left;" parent="IYKv4-9v9WQwq1Tj8tWP-290" vertex="1">
          <mxGeometry x="130" y="60" width="250" height="26" as="geometry" />
        </mxCell>
        <mxCell id="IYKv4-9v9WQwq1Tj8tWP-293" value="Token" style="html=1;shadow=0;dashed=0;shape=mxgraph.bootstrap.rrect;rSize=5;strokeColor=#CED4DA;html=1;whiteSpace=wrap;fillColor=#FFFFFF;fontColor=#7D868C;align=left;spacingLeft=0;spacing=15;fontSize=14;" parent="IYKv4-9v9WQwq1Tj8tWP-290" vertex="1">
          <mxGeometry x="920" y="120" width="388" height="20" as="geometry" />
        </mxCell>
        <mxCell id="IYKv4-9v9WQwq1Tj8tWP-294" value="DISSABLE" style="html=1;shadow=0;dashed=0;shape=mxgraph.bootstrap.rightButton;strokeColor=#b85450;fillColor=#f8cecc;rSize=5;perimeter=none;whiteSpace=wrap;resizeHeight=1;fontSize=14;labelBackgroundColor=none;" parent="IYKv4-9v9WQwq1Tj8tWP-293" vertex="1">
          <mxGeometry x="1" width="81" height="20" relative="1" as="geometry">
            <mxPoint x="-81" as="offset" />
          </mxGeometry>
        </mxCell>
        <mxCell id="IYKv4-9v9WQwq1Tj8tWP-295" value="" style="line;strokeWidth=2;html=1;textOpacity=20;" parent="IYKv4-9v9WQwq1Tj8tWP-290" vertex="1">
          <mxGeometry x="10" y="150" width="1298" height="10" as="geometry" />
        </mxCell>
        <mxCell id="IYKv4-9v9WQwq1Tj8tWP-296" value="&lt;font style=&quot;font-size: 15px;&quot;&gt;Administration panel | User: username&lt;/font&gt;" style="text;html=1;align=left;verticalAlign=middle;whiteSpace=wrap;rounded=0;" parent="IYKv4-9v9WQwq1Tj8tWP-290" vertex="1">
          <mxGeometry x="50" y="120" width="320" height="30" as="geometry" />
        </mxCell>
        <mxCell id="IYKv4-9v9WQwq1Tj8tWP-297" value="" style="group" parent="IYKv4-9v9WQwq1Tj8tWP-290" vertex="1" connectable="0">
          <mxGeometry x="34" y="180" width="1230" height="40" as="geometry" />
        </mxCell>
        <mxCell id="IYKv4-9v9WQwq1Tj8tWP-298" value="LOGS" style="strokeWidth=1;shadow=0;dashed=0;align=center;html=1;shape=mxgraph.mockup.buttons.button;strokeColor=#666666;fontColor=#ffffff;mainText=;buttonStyle=round;fontSize=17;fontStyle=1;fillColor=#872A13;whiteSpace=wrap;" parent="IYKv4-9v9WQwq1Tj8tWP-297" vertex="1">
          <mxGeometry width="180" height="40" as="geometry" />
        </mxCell>
        <mxCell id="IYKv4-9v9WQwq1Tj8tWP-299" value="STATISTICS" style="strokeWidth=1;shadow=0;dashed=0;align=center;html=1;shape=mxgraph.mockup.buttons.button;strokeColor=#666666;fontColor=#ffffff;mainText=;buttonStyle=round;fontSize=17;fontStyle=1;fillColor=#872A13;whiteSpace=wrap;" parent="IYKv4-9v9WQwq1Tj8tWP-297" vertex="1">
          <mxGeometry x="210" width="180" height="40" as="geometry" />
        </mxCell>
        <mxCell id="IYKv4-9v9WQwq1Tj8tWP-300" value="DATABASE" style="strokeWidth=1;shadow=0;dashed=0;align=center;html=1;shape=mxgraph.mockup.buttons.button;strokeColor=#666666;fontColor=#ffffff;mainText=;buttonStyle=round;fontSize=17;fontStyle=1;fillColor=#872A13;whiteSpace=wrap;" parent="IYKv4-9v9WQwq1Tj8tWP-297" vertex="1">
          <mxGeometry x="420" width="180" height="40" as="geometry" />
        </mxCell>
        <mxCell id="IYKv4-9v9WQwq1Tj8tWP-301" value="USERS" style="strokeWidth=1;shadow=0;dashed=0;align=center;html=1;shape=mxgraph.mockup.buttons.button;strokeColor=#666666;fontColor=#ffffff;mainText=;buttonStyle=round;fontSize=17;fontStyle=1;fillColor=#872A13;whiteSpace=wrap;" parent="IYKv4-9v9WQwq1Tj8tWP-297" vertex="1">
          <mxGeometry x="646" width="180" height="40" as="geometry" />
        </mxCell>
        <mxCell id="IYKv4-9v9WQwq1Tj8tWP-302" value="POSTS" style="strokeWidth=1;shadow=0;dashed=0;align=center;html=1;shape=mxgraph.mockup.buttons.button;strokeColor=#666666;fontColor=#ffffff;mainText=;buttonStyle=round;fontSize=17;fontStyle=1;fillColor=#872A13;whiteSpace=wrap;" parent="IYKv4-9v9WQwq1Tj8tWP-297" vertex="1">
          <mxGeometry x="856" width="180" height="40" as="geometry" />
        </mxCell>
        <mxCell id="IYKv4-9v9WQwq1Tj8tWP-303" value="STATUS" style="strokeWidth=1;shadow=0;dashed=0;align=center;html=1;shape=mxgraph.mockup.buttons.button;strokeColor=#666666;fontColor=#ffffff;mainText=;buttonStyle=round;fontSize=17;fontStyle=1;fillColor=#007FFF;whiteSpace=wrap;" parent="IYKv4-9v9WQwq1Tj8tWP-297" vertex="1">
          <mxGeometry x="1066" width="180" height="40" as="geometry" />
        </mxCell>
        <mxCell id="IYKv4-9v9WQwq1Tj8tWP-332" value="" style="endArrow=classic;html=1;rounded=0;exitX=1;exitY=0.5;exitDx=0;exitDy=0;" parent="1" source="IYKv4-9v9WQwq1Tj8tWP-197" edge="1">
          <mxGeometry width="50" height="50" relative="1" as="geometry">
            <mxPoint x="1680" y="1420" as="sourcePoint" />
            <mxPoint x="1630" y="1430" as="targetPoint" />
          </mxGeometry>
        </mxCell>
        <mxCell id="IYKv4-9v9WQwq1Tj8tWP-333" value="В случае, если токен не присутствует - экспорт должен быть не доступен (кнопка полупрозрачная и не кликабельная)." style="rounded=0;whiteSpace=wrap;html=1;" parent="1" vertex="1">
          <mxGeometry x="1630" y="1385" width="160" height="90" as="geometry" />
        </mxCell>
        <mxCell id="IYKv4-9v9WQwq1Tj8tWP-335" value="" style="html=1;shadow=0;dashed=0;align=center;verticalAlign=middle;shape=mxgraph.arrows2.arrow;dy=0.6;dx=40;direction=south;notch=0;" parent="1" vertex="1">
          <mxGeometry x="545" y="1420" width="70" height="240" as="geometry" />
        </mxCell>
        <mxCell id="IYKv4-9v9WQwq1Tj8tWP-336" value="" style="html=1;shadow=0;dashed=0;align=center;verticalAlign=middle;shape=mxgraph.arrows2.arrow;dy=0.6;dx=40;direction=south;notch=0;" parent="1" vertex="1">
          <mxGeometry x="545" y="2420" width="70" height="240" as="geometry" />
        </mxCell>
        <mxCell id="IYKv4-9v9WQwq1Tj8tWP-337" value="" style="html=1;shadow=0;dashed=0;align=center;verticalAlign=middle;shape=mxgraph.arrows2.arrow;dy=0.6;dx=40;direction=south;notch=0;" parent="1" vertex="1">
          <mxGeometry x="545" y="3420" width="70" height="240" as="geometry" />
        </mxCell>
        <mxCell id="IYKv4-9v9WQwq1Tj8tWP-338" value="" style="html=1;shadow=0;dashed=0;align=center;verticalAlign=middle;shape=mxgraph.arrows2.arrow;dy=0.6;dx=40;direction=south;notch=0;" parent="1" vertex="1">
          <mxGeometry x="546" y="4420" width="70" height="240" as="geometry" />
        </mxCell>
        <mxCell id="IYKv4-9v9WQwq1Tj8tWP-339" value="" style="html=1;shadow=0;dashed=0;align=center;verticalAlign=middle;shape=mxgraph.arrows2.arrow;dy=0.6;dx=40;direction=south;notch=0;" parent="1" vertex="1">
          <mxGeometry x="546" y="5420" width="70" height="240" as="geometry" />
        </mxCell>
        <mxCell id="IYKv4-9v9WQwq1Tj8tWP-47" value="Page 1" style="strokeWidth=1;shadow=0;dashed=0;align=center;html=1;shape=mxgraph.mockup.containers.anchor;fontSize=17;fontColor=#666666;align=left;whiteSpace=wrap;" parent="1" vertex="1">
          <mxGeometry x="-20" y="692" width="110" height="26" as="geometry" />
        </mxCell>
        <mxCell id="IYKv4-9v9WQwq1Tj8tWP-48" value="https://www.hostname/admin/key/panel" style="strokeWidth=1;shadow=0;dashed=0;align=center;html=1;shape=mxgraph.mockup.containers.anchor;rSize=0;fontSize=17;fontColor=#666666;align=left;" parent="1" vertex="1">
          <mxGeometry x="50" y="740" width="470" height="26" as="geometry" />
        </mxCell>
        <mxCell id="IYKv4-9v9WQwq1Tj8tWP-58" value="Fr45hnddry5634gsGbrn45#feraqwT253B" style="html=1;shadow=0;dashed=0;shape=mxgraph.bootstrap.rrect;rSize=5;strokeColor=#CED4DA;html=1;whiteSpace=wrap;fillColor=#FFFFFF;fontColor=#7D868C;align=left;spacingLeft=0;spacing=15;fontSize=14;" parent="1" vertex="1">
          <mxGeometry x="840" y="800" width="388" height="20" as="geometry" />
        </mxCell>
        <mxCell id="IYKv4-9v9WQwq1Tj8tWP-59" value="ACTIVATE" style="html=1;shadow=0;dashed=0;shape=mxgraph.bootstrap.rightButton;strokeColor=#333333;fillColor=#009900;rSize=5;perimeter=none;whiteSpace=wrap;resizeHeight=1;fontSize=14;labelBackgroundColor=none;" parent="IYKv4-9v9WQwq1Tj8tWP-58" vertex="1">
          <mxGeometry x="1" width="81" height="20" relative="1" as="geometry">
            <mxPoint x="-81" as="offset" />
          </mxGeometry>
        </mxCell>
        <mxCell id="IYKv4-9v9WQwq1Tj8tWP-63" value="" style="line;strokeWidth=2;html=1;textOpacity=20;" parent="1" vertex="1">
          <mxGeometry x="-70" y="830" width="1298" height="10" as="geometry" />
        </mxCell>
        <mxCell id="IYKv4-9v9WQwq1Tj8tWP-64" value="&lt;font style=&quot;font-size: 15px;&quot;&gt;Administration panel | User: username&lt;/font&gt;" style="text;html=1;align=left;verticalAlign=middle;whiteSpace=wrap;rounded=0;" parent="1" vertex="1">
          <mxGeometry x="-30" y="800" width="320" height="30" as="geometry" />
        </mxCell>
        <mxCell id="IYKv4-9v9WQwq1Tj8tWP-83" value="" style="group" parent="1" vertex="1" connectable="0">
          <mxGeometry x="-50" y="920" width="1290" height="680" as="geometry" />
        </mxCell>
        <mxCell id="IYKv4-9v9WQwq1Tj8tWP-71" value="" style="rounded=1;whiteSpace=wrap;html=1;absoluteArcSize=1;arcSize=14;strokeWidth=2;" parent="IYKv4-9v9WQwq1Tj8tWP-83" vertex="1">
          <mxGeometry width="1039.7727272727275" height="460" as="geometry" />
        </mxCell>
        <mxCell id="IYKv4-9v9WQwq1Tj8tWP-72" value="LOGS" style="text;html=1;align=center;verticalAlign=middle;whiteSpace=wrap;rounded=0;" parent="IYKv4-9v9WQwq1Tj8tWP-83" vertex="1">
          <mxGeometry width="150" height="34.716981132075475" as="geometry" />
        </mxCell>
        <mxCell id="IYKv4-9v9WQwq1Tj8tWP-74" value="" style="verticalLabelPosition=bottom;verticalAlign=top;html=1;shadow=0;dashed=0;strokeWidth=1;shape=mxgraph.android.quickscroll3;dy=0.499;fillColor=#33b5e5;strokeColor=#66D5F5;" parent="IYKv4-9v9WQwq1Tj8tWP-83" vertex="1">
          <mxGeometry x="1022.7272727272727" y="43.39622641509434" width="10.227272727272728" height="407.9245283018869" as="geometry" />
        </mxCell>
        <mxCell id="IYKv4-9v9WQwq1Tj8tWP-73" value="" style="endArrow=none;dashed=1;html=1;dashPattern=1 3;strokeWidth=2;rounded=0;exitX=0.008;exitY=0.099;exitDx=0;exitDy=0;exitPerimeter=0;" parent="IYKv4-9v9WQwq1Tj8tWP-83" edge="1">
          <mxGeometry width="50" height="50" relative="1" as="geometry">
            <mxPoint x="12.644428152492743" y="34.716981132075624" as="sourcePoint" />
            <mxPoint x="1027.1370967741934" y="34.734693877551024" as="targetPoint" />
          </mxGeometry>
        </mxCell>
        <mxCell id="IYKv4-9v9WQwq1Tj8tWP-174" value="Это окно должно выводить сообщения об ошибках или любые иные сообщения." style="whiteSpace=wrap;html=1;shape=mxgraph.basic.rectCallout;dx=30;dy=15;boundedLbl=1;" parent="IYKv4-9v9WQwq1Tj8tWP-83" vertex="1">
          <mxGeometry x="570" y="150" width="250" height="60" as="geometry" />
        </mxCell>
        <mxCell id="LnX6BK-S7mx_78NqDa5w-39" value="Fr45hnddry5634gsGbrn45#feraqwT253B" style="html=1;shadow=0;dashed=0;shape=mxgraph.bootstrap.rrect;rSize=5;strokeColor=#CED4DA;html=1;whiteSpace=wrap;fillColor=#FFFFFF;fontColor=#7D868C;align=left;spacingLeft=0;spacing=15;fontSize=14;" vertex="1" parent="IYKv4-9v9WQwq1Tj8tWP-83">
          <mxGeometry x="820" y="630" width="388" height="20" as="geometry" />
        </mxCell>
        <mxCell id="LnX6BK-S7mx_78NqDa5w-40" value="ACTIVATE" style="html=1;shadow=0;dashed=0;shape=mxgraph.bootstrap.rightButton;strokeColor=#333333;fillColor=#009900;rSize=5;perimeter=none;whiteSpace=wrap;resizeHeight=1;fontSize=14;labelBackgroundColor=none;" vertex="1" parent="LnX6BK-S7mx_78NqDa5w-39">
          <mxGeometry x="1" width="81" height="20" relative="1" as="geometry">
            <mxPoint x="-81" as="offset" />
          </mxGeometry>
        </mxCell>
        <mxCell id="IYKv4-9v9WQwq1Tj8tWP-99" value="" style="group" parent="1" vertex="1" connectable="0">
          <mxGeometry x="-46" y="860" width="1230" height="40" as="geometry" />
        </mxCell>
        <mxCell id="IYKv4-9v9WQwq1Tj8tWP-70" value="LOGS" style="strokeWidth=1;shadow=0;dashed=0;align=center;html=1;shape=mxgraph.mockup.buttons.button;strokeColor=#666666;fontColor=#ffffff;mainText=;buttonStyle=round;fontSize=17;fontStyle=1;fillColor=#008cff;whiteSpace=wrap;" parent="IYKv4-9v9WQwq1Tj8tWP-99" vertex="1">
          <mxGeometry width="180" height="40" as="geometry" />
        </mxCell>
        <mxCell id="IYKv4-9v9WQwq1Tj8tWP-65" value="STATISTICS" style="strokeWidth=1;shadow=0;dashed=0;align=center;html=1;shape=mxgraph.mockup.buttons.button;strokeColor=#666666;fontColor=#000000;mainText=;buttonStyle=round;fontSize=17;fontStyle=1;fillColor=#DAE8FC;whiteSpace=wrap;" parent="IYKv4-9v9WQwq1Tj8tWP-99" vertex="1">
          <mxGeometry x="210" width="180" height="40" as="geometry" />
        </mxCell>
        <mxCell id="IYKv4-9v9WQwq1Tj8tWP-66" value="DASHBOADS BASE" style="strokeWidth=1;shadow=0;dashed=0;align=center;html=1;shape=mxgraph.mockup.buttons.button;strokeColor=#666666;fontColor=#000000;mainText=;buttonStyle=round;fontSize=17;fontStyle=1;fillColor=#DAE8FC;whiteSpace=wrap;" parent="IYKv4-9v9WQwq1Tj8tWP-99" vertex="1">
          <mxGeometry x="420" width="180" height="40" as="geometry" />
        </mxCell>
        <mxCell id="IYKv4-9v9WQwq1Tj8tWP-67" value="USERS" style="strokeWidth=1;shadow=0;dashed=0;align=center;html=1;shape=mxgraph.mockup.buttons.button;strokeColor=#666666;fontColor=#000000;mainText=;buttonStyle=round;fontSize=17;fontStyle=1;fillColor=#DAE8FC;whiteSpace=wrap;" parent="IYKv4-9v9WQwq1Tj8tWP-99" vertex="1">
          <mxGeometry x="646" width="180" height="40" as="geometry" />
        </mxCell>
        <mxCell id="IYKv4-9v9WQwq1Tj8tWP-68" value="POSTS" style="strokeWidth=1;shadow=0;dashed=0;align=center;html=1;shape=mxgraph.mockup.buttons.button;strokeColor=#666666;fontColor=#000000;mainText=;buttonStyle=round;fontSize=17;fontStyle=1;fillColor=#DAE8FC;whiteSpace=wrap;" parent="IYKv4-9v9WQwq1Tj8tWP-99" vertex="1">
          <mxGeometry x="856" width="180" height="40" as="geometry" />
        </mxCell>
        <mxCell id="IYKv4-9v9WQwq1Tj8tWP-69" value="STATISTICS" style="strokeWidth=1;shadow=0;dashed=0;align=center;html=1;shape=mxgraph.mockup.buttons.button;strokeColor=#666666;fontColor=#000000;mainText=;buttonStyle=round;fontSize=17;fontStyle=1;fillColor=#DAE8FC;whiteSpace=wrap;" parent="IYKv4-9v9WQwq1Tj8tWP-99" vertex="1">
          <mxGeometry x="1066" width="180" height="40" as="geometry" />
        </mxCell>
        <mxCell id="IYKv4-9v9WQwq1Tj8tWP-101" value="Type output message:" style="fillColor=none;strokeColor=none;fontSize=12;fontStyle=1;align=left;fontColor=#000000;sketch=0;hachureGap=4;pointerEvents=0;fontFamily=Times New Roman;" parent="1" vertex="1">
          <mxGeometry x="1009" y="960" width="200" height="20.4" as="geometry" />
        </mxCell>
        <mxCell id="IYKv4-9v9WQwq1Tj8tWP-102" value="&lt;font face=&quot;Times New Roman&quot;&gt;INFO&lt;/font&gt;" style="rounded=1;fillColor=#F0F2F5;strokeColor=#D8DCE3;fontColor=#000000;align=left;verticalAlign=middle;fontStyle=1;fontSize=12;labelPosition=right;verticalLabelPosition=middle;spacingLeft=10;html=1;shadow=0;dashed=0;sketch=0;hachureGap=4;pointerEvents=0;fontFamily=Architects Daughter;fontSource=https%3A%2F%2Ffonts.googleapis.com%2Fcss%3Ffamily%3DArchitects%2BDaughter;" parent="1" vertex="1">
          <mxGeometry x="1020" y="989.996936416185" width="16.8" height="18.24277456647399" as="geometry" />
        </mxCell>
        <mxCell id="IYKv4-9v9WQwq1Tj8tWP-103" value="&lt;font face=&quot;Times New Roman&quot;&gt;ERROR&lt;/font&gt;" style="html=1;shadow=0;dashed=0;shape=mxgraph.atlassian.checkbox_2;fillColor=#0057D8;strokeColor=none;fontColor=#000000;align=left;verticalAlign=middle;fontStyle=1;fontSize=12;labelPosition=right;verticalLabelPosition=middle;spacingLeft=10;sketch=0;hachureGap=4;pointerEvents=0;fontFamily=Architects Daughter;fontSource=https%3A%2F%2Ffonts.googleapis.com%2Fcss%3Ffamily%3DArchitects%2BDaughter;" parent="1" vertex="1">
          <mxGeometry x="1020" y="1028.0027167630058" width="16.8" height="18.24277456647399" as="geometry" />
        </mxCell>
        <mxCell id="IYKv4-9v9WQwq1Tj8tWP-104" value="&lt;font face=&quot;Times New Roman&quot;&gt;WARNING&lt;/font&gt;" style="html=1;shadow=0;dashed=0;shape=mxgraph.atlassian.checkbox_2;fillColor=#0057D8;strokeColor=none;fontColor=#000000;align=left;verticalAlign=middle;fontStyle=1;fontSize=12;labelPosition=right;verticalLabelPosition=middle;spacingLeft=10;sketch=0;hachureGap=4;pointerEvents=0;fontFamily=Architects Daughter;fontSource=https%3A%2F%2Ffonts.googleapis.com%2Fcss%3Ffamily%3DArchitects%2BDaughter;" parent="1" vertex="1">
          <mxGeometry x="1020" y="1066.0084971098265" width="16.8" height="18.24277456647399" as="geometry" />
        </mxCell>
        <mxCell id="IYKv4-9v9WQwq1Tj8tWP-105" value="&lt;font face=&quot;Times New Roman&quot;&gt;ADMIN&lt;/font&gt;" style="rounded=1;fillColor=#F0F2F5;strokeColor=#D8DCE3;fontColor=#000000;align=left;verticalAlign=middle;fontStyle=1;fontSize=12;labelPosition=right;verticalLabelPosition=middle;spacingLeft=10;html=1;shadow=0;dashed=0;sketch=0;hachureGap=4;pointerEvents=0;fontFamily=Architects Daughter;fontSource=https%3A%2F%2Ffonts.googleapis.com%2Fcss%3Ffamily%3DArchitects%2BDaughter;" parent="1" vertex="1">
          <mxGeometry x="1020" y="1104.0142774566475" width="16.8" height="18.24277456647399" as="geometry" />
        </mxCell>
        <mxCell id="IYKv4-9v9WQwq1Tj8tWP-106" value="&lt;font face=&quot;Times New Roman&quot;&gt;ACCEPT&lt;/font&gt;" style="rounded=1;fillColor=#0057D8;strokeColor=none;fontColor=#ffffff;align=center;verticalAlign=middle;fontStyle=0;fontSize=14;html=1;shadow=0;dashed=0;sketch=0;hachureGap=4;pointerEvents=0;fontFamily=Architects Daughter;fontSource=https%3A%2F%2Ffonts.googleapis.com%2Fcss%3Ffamily%3DArchitects%2BDaughter;" parent="1" vertex="1">
          <mxGeometry x="1009" y="1300" width="210" height="30" as="geometry" />
        </mxCell>
        <mxCell id="IYKv4-9v9WQwq1Tj8tWP-109" value="CONFIGURATIONS:" style="text;strokeColor=none;fillColor=none;html=1;fontSize=24;fontStyle=1;verticalAlign=middle;align=center;" parent="1" vertex="1">
          <mxGeometry x="1026.8" y="920" width="183.2" height="40" as="geometry" />
        </mxCell>
        <mxCell id="IYKv4-9v9WQwq1Tj8tWP-168" value="Message Text" style="rounded=1;arcSize=9;fillColor=#ffffff;align=left;spacingLeft=5;strokeColor=#DAE8FC;html=1;strokeWidth=2;fontColor=#253858;fontSize=12" parent="1" vertex="1">
          <mxGeometry x="1018" y="1240" width="192" height="27.35" as="geometry" />
        </mxCell>
        <mxCell id="IYKv4-9v9WQwq1Tj8tWP-170" value="&lt;font color=&quot;#000000&quot;&gt;Message:&lt;/font&gt;" style="fillColor=none;strokeColor=none;html=1;fontSize=11;fontStyle=1;align=left;fontColor=#FFFFFF;fontStyle=1;fontSize=11" parent="1" vertex="1">
          <mxGeometry x="1009" y="1220" width="165" height="10.120481927710843" as="geometry" />
        </mxCell>
        <mxCell id="IYKv4-9v9WQwq1Tj8tWP-111" value="Today" style="rounded=1;arcSize=9;fillColor=#ffffff;align=left;spacingLeft=5;strokeColor=#DAE8FC;html=1;strokeWidth=2;fontColor=#253858;fontSize=12" parent="1" vertex="1">
          <mxGeometry x="1018" y="1170" width="192" height="27.35" as="geometry" />
        </mxCell>
        <mxCell id="IYKv4-9v9WQwq1Tj8tWP-112" value="" style="shape=mxgraph.gmdl.calendar;fillColor=#253858;strokeColor=none" parent="IYKv4-9v9WQwq1Tj8tWP-111" vertex="1">
          <mxGeometry x="1" y="0.5" width="18" height="18" relative="1" as="geometry">
            <mxPoint x="-24" y="-8" as="offset" />
          </mxGeometry>
        </mxCell>
        <mxCell id="IYKv4-9v9WQwq1Tj8tWP-171" value="" style="strokeWidth=2;html=1;shape=mxgraph.flowchart.merge_or_storage;whiteSpace=wrap;" parent="1" vertex="1">
          <mxGeometry x="1184" y="1246.6799999999998" width="16" height="14" as="geometry" />
        </mxCell>
        <mxCell id="IYKv4-9v9WQwq1Tj8tWP-188" value="" style="shape=curlyBracket;whiteSpace=wrap;html=1;rounded=1;flipH=1;labelPosition=right;verticalLabelPosition=middle;align=left;verticalAlign=middle;" parent="1" vertex="1">
          <mxGeometry x="1130" y="990" width="20" height="130" as="geometry" />
        </mxCell>
        <mxCell id="IYKv4-9v9WQwq1Tj8tWP-195" value="&lt;font face=&quot;Times New Roman&quot;&gt;EXPORT&lt;/font&gt;" style="rounded=1;fillColor=#0057D8;strokeColor=none;fontColor=#ffffff;align=center;verticalAlign=middle;fontStyle=0;fontSize=14;html=1;shadow=0;dashed=0;sketch=0;hachureGap=4;pointerEvents=0;fontFamily=Architects Daughter;fontSource=https%3A%2F%2Ffonts.googleapis.com%2Fcss%3Ffamily%3DArchitects%2BDaughter;" parent="1" vertex="1">
          <mxGeometry x="1009" y="1340" width="210" height="30" as="geometry" />
        </mxCell>
        <mxCell id="IYKv4-9v9WQwq1Tj8tWP-381" value="&lt;font color=&quot;#000000&quot;&gt;Date:&lt;/font&gt;" style="fillColor=none;strokeColor=none;html=1;fontSize=11;fontStyle=1;align=left;fontColor=#FFFFFF;fontStyle=1;fontSize=11" parent="1" vertex="1">
          <mxGeometry x="1009" y="1148.56" width="165" height="10.120481927710843" as="geometry" />
        </mxCell>
        <mxCell id="IYKv4-9v9WQwq1Tj8tWP-382" value="" style="strokeWidth=1;shadow=0;dashed=0;align=center;html=1;shape=mxgraph.mockup.containers.browserWindow;rSize=0;strokeColor=#666666;strokeColor2=#008cff;strokeColor3=#c4c4c4;mainText=,;recursiveResize=0;" parent="1" vertex="1">
          <mxGeometry x="1654" y="-320" width="1320" height="720" as="geometry" />
        </mxCell>
        <mxCell id="IYKv4-9v9WQwq1Tj8tWP-383" value="Page 1" style="strokeWidth=1;shadow=0;dashed=0;align=center;html=1;shape=mxgraph.mockup.containers.anchor;fontSize=17;fontColor=#666666;align=left;whiteSpace=wrap;" parent="IYKv4-9v9WQwq1Tj8tWP-382" vertex="1">
          <mxGeometry x="60" y="12" width="110" height="26" as="geometry" />
        </mxCell>
        <mxCell id="IYKv4-9v9WQwq1Tj8tWP-384" value="https://www.hostname/admin/key" style="strokeWidth=1;shadow=0;dashed=0;align=center;html=1;shape=mxgraph.mockup.containers.anchor;rSize=0;fontSize=17;fontColor=#666666;align=left;" parent="IYKv4-9v9WQwq1Tj8tWP-382" vertex="1">
          <mxGeometry x="130" y="60" width="440" height="26" as="geometry" />
        </mxCell>
        <mxCell id="IYKv4-9v9WQwq1Tj8tWP-385" value="" style="strokeWidth=1;shadow=0;dashed=0;align=center;html=1;shape=mxgraph.mockup.forms.rrect;rSize=0;strokeColor=#6c8ebf;fillColor=#dae8fc;" parent="IYKv4-9v9WQwq1Tj8tWP-382" vertex="1">
          <mxGeometry x="470" y="260" width="340" height="200" as="geometry" />
        </mxCell>
        <mxCell id="IYKv4-9v9WQwq1Tj8tWP-386" value="Административная панель" style="strokeWidth=1;shadow=0;dashed=0;align=center;html=1;shape=mxgraph.mockup.forms.anchor;fontSize=12;fontColor=#000000;align=left;resizeWidth=1;spacingLeft=0;" parent="IYKv4-9v9WQwq1Tj8tWP-385" vertex="1">
          <mxGeometry width="169.99999999999997" height="20" relative="1" as="geometry">
            <mxPoint x="10" y="10" as="offset" />
          </mxGeometry>
        </mxCell>
        <mxCell id="IYKv4-9v9WQwq1Tj8tWP-387" value="" style="shape=line;strokeColor=#F0F8FF;strokeWidth=3;html=1;resizeWidth=1;" parent="IYKv4-9v9WQwq1Tj8tWP-385" vertex="1">
          <mxGeometry width="320" height="10" relative="1" as="geometry">
            <mxPoint x="10" y="30" as="offset" />
          </mxGeometry>
        </mxCell>
        <mxCell id="IYKv4-9v9WQwq1Tj8tWP-388" value="Имя пользователя:" style="strokeWidth=1;shadow=0;dashed=0;align=center;html=1;shape=mxgraph.mockup.forms.anchor;fontSize=12;fontColor=#000000;align=left;resizeWidth=1;spacingLeft=0;" parent="IYKv4-9v9WQwq1Tj8tWP-385" vertex="1">
          <mxGeometry width="169.99999999999997" height="20" relative="1" as="geometry">
            <mxPoint x="10" y="40" as="offset" />
          </mxGeometry>
        </mxCell>
        <mxCell id="IYKv4-9v9WQwq1Tj8tWP-389" value="johndoe" style="strokeWidth=1;shadow=0;dashed=0;align=center;html=1;shape=mxgraph.mockup.forms.rrect;rSize=0;strokeColor=#999999;fontColor=#666666;align=left;spacingLeft=5;resizeWidth=1;" parent="IYKv4-9v9WQwq1Tj8tWP-385" vertex="1">
          <mxGeometry width="255" height="25" relative="1" as="geometry">
            <mxPoint x="10" y="60" as="offset" />
          </mxGeometry>
        </mxCell>
        <mxCell id="IYKv4-9v9WQwq1Tj8tWP-390" value="Пароль:" style="strokeWidth=1;shadow=0;dashed=0;align=center;html=1;shape=mxgraph.mockup.forms.anchor;fontSize=12;fontColor=#000000;align=left;resizeWidth=1;spacingLeft=0;" parent="IYKv4-9v9WQwq1Tj8tWP-385" vertex="1">
          <mxGeometry width="169.99999999999997" height="20" relative="1" as="geometry">
            <mxPoint x="10" y="95" as="offset" />
          </mxGeometry>
        </mxCell>
        <mxCell id="IYKv4-9v9WQwq1Tj8tWP-391" value="********" style="strokeWidth=1;shadow=0;dashed=0;align=center;html=1;shape=mxgraph.mockup.forms.rrect;rSize=0;strokeColor=#999999;fontColor=#666666;align=left;spacingLeft=5;resizeWidth=1;" parent="IYKv4-9v9WQwq1Tj8tWP-385" vertex="1">
          <mxGeometry width="255" height="25" relative="1" as="geometry">
            <mxPoint x="10" y="115" as="offset" />
          </mxGeometry>
        </mxCell>
        <mxCell id="IYKv4-9v9WQwq1Tj8tWP-392" value="SIGN IN" style="strokeWidth=1;shadow=0;dashed=0;align=center;html=1;shape=mxgraph.mockup.forms.rrect;rSize=5;strokeColor=none;fontColor=#ffffff;fillColor=#66bbff;fontSize=16;fontStyle=1;" parent="IYKv4-9v9WQwq1Tj8tWP-385" vertex="1">
          <mxGeometry y="1" width="80" height="30" relative="1" as="geometry">
            <mxPoint x="130" y="-40" as="offset" />
          </mxGeometry>
        </mxCell>
        <mxCell id="IYKv4-9v9WQwq1Tj8tWP-393" value="" style="strokeWidth=1;shadow=0;dashed=0;align=center;html=1;shape=mxgraph.mockup.forms.anchor;fontSize=12;fontColor=#666666;align=left;spacingLeft=0;resizeWidth=1;" parent="IYKv4-9v9WQwq1Tj8tWP-385" vertex="1">
          <mxGeometry y="1" width="255" height="20" relative="1" as="geometry">
            <mxPoint x="10" y="-70" as="offset" />
          </mxGeometry>
        </mxCell>
        <mxCell id="IYKv4-9v9WQwq1Tj8tWP-42" value="&lt;font style=&quot;font-size: 9px;&quot;&gt;Неверные данные для авторизации&lt;/font&gt;" style="text;html=1;align=center;verticalAlign=middle;whiteSpace=wrap;rounded=0;textOpacity=70;fontColor=#FF5C5C;" parent="IYKv4-9v9WQwq1Tj8tWP-385" vertex="1">
          <mxGeometry x="6" y="140" width="160" height="18.333333333333332" as="geometry" />
        </mxCell>
        <mxCell id="LnX6BK-S7mx_78NqDa5w-1" value="Если автроизация прошла успешно" style="whiteSpace=wrap;html=1;shape=mxgraph.basic.rectCallout;dx=30;dy=15;boundedLbl=1;" vertex="1" parent="1">
          <mxGeometry x="570" y="460" width="244" height="45" as="geometry" />
        </mxCell>
        <mxCell id="LnX6BK-S7mx_78NqDa5w-2" value="" style="strokeWidth=1;shadow=0;dashed=0;align=left;html=1;shape=mxgraph.mockup.containers.browserWindow;rSize=0;strokeColor=#666666;strokeColor2=#008cff;strokeColor3=#c4c4c4;mainText=,;recursiveResize=0;container=0;" vertex="1" parent="1">
          <mxGeometry x="-1681" y="680" width="1320" height="720" as="geometry" />
        </mxCell>
        <mxCell id="LnX6BK-S7mx_78NqDa5w-3" value="Page 1" style="strokeWidth=1;shadow=0;dashed=0;align=center;html=1;shape=mxgraph.mockup.containers.anchor;fontSize=17;fontColor=#666666;align=left;whiteSpace=wrap;" vertex="1" parent="1">
          <mxGeometry x="-1620" y="672" width="110" height="26" as="geometry" />
        </mxCell>
        <mxCell id="LnX6BK-S7mx_78NqDa5w-4" value="https://www.hostname/admin/key/panel" style="strokeWidth=1;shadow=0;dashed=0;align=center;html=1;shape=mxgraph.mockup.containers.anchor;rSize=0;fontSize=17;fontColor=#666666;align=left;" vertex="1" parent="1">
          <mxGeometry x="-1550" y="720" width="470" height="26" as="geometry" />
        </mxCell>
        <mxCell id="LnX6BK-S7mx_78NqDa5w-5" value="Token" style="html=1;shadow=0;dashed=0;shape=mxgraph.bootstrap.rrect;rSize=5;strokeColor=#CED4DA;html=1;whiteSpace=wrap;fillColor=#FFFFFF;fontColor=#7D868C;align=left;spacingLeft=0;spacing=15;fontSize=14;" vertex="1" parent="1">
          <mxGeometry x="-760" y="780" width="388" height="20" as="geometry" />
        </mxCell>
        <mxCell id="LnX6BK-S7mx_78NqDa5w-6" value="DISSABLE" style="html=1;shadow=0;dashed=0;shape=mxgraph.bootstrap.rightButton;strokeColor=#b85450;fillColor=#f8cecc;rSize=5;perimeter=none;whiteSpace=wrap;resizeHeight=1;fontSize=14;labelBackgroundColor=none;" vertex="1" parent="LnX6BK-S7mx_78NqDa5w-5">
          <mxGeometry x="1" width="81" height="20" relative="1" as="geometry">
            <mxPoint x="-81" as="offset" />
          </mxGeometry>
        </mxCell>
        <mxCell id="LnX6BK-S7mx_78NqDa5w-7" value="" style="line;strokeWidth=2;html=1;textOpacity=20;" vertex="1" parent="1">
          <mxGeometry x="-1670" y="810" width="1298" height="10" as="geometry" />
        </mxCell>
        <mxCell id="LnX6BK-S7mx_78NqDa5w-8" value="&lt;font style=&quot;font-size: 15px;&quot;&gt;Administration panel | User: username&lt;/font&gt;" style="text;html=1;align=left;verticalAlign=middle;whiteSpace=wrap;rounded=0;" vertex="1" parent="1">
          <mxGeometry x="-1630" y="780" width="320" height="30" as="geometry" />
        </mxCell>
        <mxCell id="LnX6BK-S7mx_78NqDa5w-9" value="" style="rounded=1;whiteSpace=wrap;html=1;absoluteArcSize=1;arcSize=14;strokeWidth=2;" vertex="1" parent="1">
          <mxGeometry x="-1650" y="900" width="1039.7727272727275" height="460" as="geometry" />
        </mxCell>
        <mxCell id="LnX6BK-S7mx_78NqDa5w-10" value="LOGS" style="text;html=1;align=center;verticalAlign=middle;whiteSpace=wrap;rounded=0;" vertex="1" parent="1">
          <mxGeometry x="-1650" y="900" width="150" height="34.716981132075475" as="geometry" />
        </mxCell>
        <mxCell id="LnX6BK-S7mx_78NqDa5w-11" value="" style="verticalLabelPosition=bottom;verticalAlign=top;html=1;shadow=0;dashed=0;strokeWidth=1;shape=mxgraph.android.quickscroll3;dy=0.499;fillColor=#33b5e5;strokeColor=#66D5F5;" vertex="1" parent="1">
          <mxGeometry x="-627.2727272727273" y="943.3962264150944" width="10.227272727272728" height="407.9245283018869" as="geometry" />
        </mxCell>
        <mxCell id="LnX6BK-S7mx_78NqDa5w-12" value="" style="endArrow=none;dashed=1;html=1;dashPattern=1 3;strokeWidth=2;rounded=0;exitX=0.008;exitY=0.099;exitDx=0;exitDy=0;exitPerimeter=0;" edge="1" parent="1">
          <mxGeometry width="50" height="50" relative="1" as="geometry">
            <mxPoint x="-1637.3555718475072" y="934.7169811320756" as="sourcePoint" />
            <mxPoint x="-622.8629032258066" y="934.7346938775511" as="targetPoint" />
          </mxGeometry>
        </mxCell>
        <mxCell id="LnX6BK-S7mx_78NqDa5w-14" value="" style="group" vertex="1" connectable="0" parent="1">
          <mxGeometry x="-1646" y="840" width="1230" height="40" as="geometry" />
        </mxCell>
        <mxCell id="LnX6BK-S7mx_78NqDa5w-15" value="LOGS" style="strokeWidth=1;shadow=0;dashed=0;align=center;html=1;shape=mxgraph.mockup.buttons.button;strokeColor=#666666;fontColor=#ffffff;mainText=;buttonStyle=round;fontSize=17;fontStyle=1;fillColor=#008cff;whiteSpace=wrap;" vertex="1" parent="LnX6BK-S7mx_78NqDa5w-14">
          <mxGeometry width="180" height="40" as="geometry" />
        </mxCell>
        <mxCell id="LnX6BK-S7mx_78NqDa5w-16" value="STATISTICS" style="strokeWidth=1;shadow=0;dashed=0;align=center;html=1;shape=mxgraph.mockup.buttons.button;strokeColor=#666666;fontColor=#000000;mainText=;buttonStyle=round;fontSize=17;fontStyle=1;fillColor=#DAE8FC;whiteSpace=wrap;" vertex="1" parent="LnX6BK-S7mx_78NqDa5w-14">
          <mxGeometry x="210" width="180" height="40" as="geometry" />
        </mxCell>
        <mxCell id="LnX6BK-S7mx_78NqDa5w-17" value="DASHBOADS BASE" style="strokeWidth=1;shadow=0;dashed=0;align=center;html=1;shape=mxgraph.mockup.buttons.button;strokeColor=#666666;fontColor=#000000;mainText=;buttonStyle=round;fontSize=17;fontStyle=1;fillColor=#DAE8FC;whiteSpace=wrap;" vertex="1" parent="LnX6BK-S7mx_78NqDa5w-14">
          <mxGeometry x="420" width="180" height="40" as="geometry" />
        </mxCell>
        <mxCell id="LnX6BK-S7mx_78NqDa5w-18" value="USERS" style="strokeWidth=1;shadow=0;dashed=0;align=center;html=1;shape=mxgraph.mockup.buttons.button;strokeColor=#666666;fontColor=#000000;mainText=;buttonStyle=round;fontSize=17;fontStyle=1;fillColor=#DAE8FC;whiteSpace=wrap;" vertex="1" parent="LnX6BK-S7mx_78NqDa5w-14">
          <mxGeometry x="646" width="180" height="40" as="geometry" />
        </mxCell>
        <mxCell id="LnX6BK-S7mx_78NqDa5w-19" value="POSTS" style="strokeWidth=1;shadow=0;dashed=0;align=center;html=1;shape=mxgraph.mockup.buttons.button;strokeColor=#666666;fontColor=#000000;mainText=;buttonStyle=round;fontSize=17;fontStyle=1;fillColor=#DAE8FC;whiteSpace=wrap;" vertex="1" parent="LnX6BK-S7mx_78NqDa5w-14">
          <mxGeometry x="856" width="180" height="40" as="geometry" />
        </mxCell>
        <mxCell id="LnX6BK-S7mx_78NqDa5w-20" value="STATISTICS" style="strokeWidth=1;shadow=0;dashed=0;align=center;html=1;shape=mxgraph.mockup.buttons.button;strokeColor=#666666;fontColor=#000000;mainText=;buttonStyle=round;fontSize=17;fontStyle=1;fillColor=#DAE8FC;whiteSpace=wrap;" vertex="1" parent="LnX6BK-S7mx_78NqDa5w-14">
          <mxGeometry x="1066" width="180" height="40" as="geometry" />
        </mxCell>
        <mxCell id="LnX6BK-S7mx_78NqDa5w-21" value="Type output message:" style="fillColor=none;strokeColor=none;fontSize=12;fontStyle=1;align=left;fontColor=#000000;sketch=0;hachureGap=4;pointerEvents=0;fontFamily=Times New Roman;" vertex="1" parent="1">
          <mxGeometry x="-591" y="940" width="200" height="20.4" as="geometry" />
        </mxCell>
        <mxCell id="LnX6BK-S7mx_78NqDa5w-22" value="&lt;font face=&quot;Times New Roman&quot;&gt;INFO&lt;/font&gt;" style="rounded=1;fillColor=#F0F2F5;strokeColor=#D8DCE3;fontColor=#000000;align=left;verticalAlign=middle;fontStyle=1;fontSize=12;labelPosition=right;verticalLabelPosition=middle;spacingLeft=10;html=1;shadow=0;dashed=0;sketch=0;hachureGap=4;pointerEvents=0;fontFamily=Architects Daughter;fontSource=https%3A%2F%2Ffonts.googleapis.com%2Fcss%3Ffamily%3DArchitects%2BDaughter;" vertex="1" parent="1">
          <mxGeometry x="-580" y="969.996936416185" width="16.8" height="18.24277456647399" as="geometry" />
        </mxCell>
        <mxCell id="LnX6BK-S7mx_78NqDa5w-23" value="&lt;font face=&quot;Times New Roman&quot;&gt;ERROR&lt;/font&gt;" style="html=1;shadow=0;dashed=0;shape=mxgraph.atlassian.checkbox_2;fillColor=#0057D8;strokeColor=none;fontColor=#000000;align=left;verticalAlign=middle;fontStyle=1;fontSize=12;labelPosition=right;verticalLabelPosition=middle;spacingLeft=10;sketch=0;hachureGap=4;pointerEvents=0;fontFamily=Architects Daughter;fontSource=https%3A%2F%2Ffonts.googleapis.com%2Fcss%3Ffamily%3DArchitects%2BDaughter;" vertex="1" parent="1">
          <mxGeometry x="-580" y="1008.0027167630058" width="16.8" height="18.24277456647399" as="geometry" />
        </mxCell>
        <mxCell id="LnX6BK-S7mx_78NqDa5w-24" value="&lt;font face=&quot;Times New Roman&quot;&gt;WARNING&lt;/font&gt;" style="html=1;shadow=0;dashed=0;shape=mxgraph.atlassian.checkbox_2;fillColor=#0057D8;strokeColor=none;fontColor=#000000;align=left;verticalAlign=middle;fontStyle=1;fontSize=12;labelPosition=right;verticalLabelPosition=middle;spacingLeft=10;sketch=0;hachureGap=4;pointerEvents=0;fontFamily=Architects Daughter;fontSource=https%3A%2F%2Ffonts.googleapis.com%2Fcss%3Ffamily%3DArchitects%2BDaughter;" vertex="1" parent="1">
          <mxGeometry x="-580" y="1046.0084971098265" width="16.8" height="18.24277456647399" as="geometry" />
        </mxCell>
        <mxCell id="LnX6BK-S7mx_78NqDa5w-25" value="&lt;font face=&quot;Times New Roman&quot;&gt;ADMIN&lt;/font&gt;" style="rounded=1;fillColor=#F0F2F5;strokeColor=#D8DCE3;fontColor=#000000;align=left;verticalAlign=middle;fontStyle=1;fontSize=12;labelPosition=right;verticalLabelPosition=middle;spacingLeft=10;html=1;shadow=0;dashed=0;sketch=0;hachureGap=4;pointerEvents=0;fontFamily=Architects Daughter;fontSource=https%3A%2F%2Ffonts.googleapis.com%2Fcss%3Ffamily%3DArchitects%2BDaughter;" vertex="1" parent="1">
          <mxGeometry x="-580" y="1084.0142774566475" width="16.8" height="18.24277456647399" as="geometry" />
        </mxCell>
        <mxCell id="LnX6BK-S7mx_78NqDa5w-26" value="&lt;font face=&quot;Times New Roman&quot;&gt;ACCEPT&lt;/font&gt;" style="rounded=1;fillColor=#0057D8;strokeColor=none;fontColor=#ffffff;align=center;verticalAlign=middle;fontStyle=0;fontSize=14;html=1;shadow=0;dashed=0;sketch=0;hachureGap=4;pointerEvents=0;fontFamily=Architects Daughter;fontSource=https%3A%2F%2Ffonts.googleapis.com%2Fcss%3Ffamily%3DArchitects%2BDaughter;" vertex="1" parent="1">
          <mxGeometry x="-591" y="1280" width="210" height="30" as="geometry" />
        </mxCell>
        <mxCell id="LnX6BK-S7mx_78NqDa5w-27" value="CONFIGURATIONS:" style="text;strokeColor=none;fillColor=none;html=1;fontSize=24;fontStyle=1;verticalAlign=middle;align=center;" vertex="1" parent="1">
          <mxGeometry x="-573.2" y="900" width="183.2" height="40" as="geometry" />
        </mxCell>
        <mxCell id="LnX6BK-S7mx_78NqDa5w-28" value="Message Text" style="rounded=1;arcSize=9;fillColor=#ffffff;align=left;spacingLeft=5;strokeColor=#DAE8FC;html=1;strokeWidth=2;fontColor=#253858;fontSize=12" vertex="1" parent="1">
          <mxGeometry x="-582" y="1220" width="192" height="27.35" as="geometry" />
        </mxCell>
        <mxCell id="LnX6BK-S7mx_78NqDa5w-29" value="&lt;font color=&quot;#000000&quot;&gt;Message:&lt;/font&gt;" style="fillColor=none;strokeColor=none;html=1;fontSize=11;fontStyle=1;align=left;fontColor=#FFFFFF;fontStyle=1;fontSize=11" vertex="1" parent="1">
          <mxGeometry x="-591" y="1200" width="165" height="10.120481927710843" as="geometry" />
        </mxCell>
        <mxCell id="LnX6BK-S7mx_78NqDa5w-30" value="Today" style="rounded=1;arcSize=9;fillColor=#ffffff;align=left;spacingLeft=5;strokeColor=#DAE8FC;html=1;strokeWidth=2;fontColor=#253858;fontSize=12" vertex="1" parent="1">
          <mxGeometry x="-582" y="1150" width="192" height="27.35" as="geometry" />
        </mxCell>
        <mxCell id="LnX6BK-S7mx_78NqDa5w-31" value="" style="shape=mxgraph.gmdl.calendar;fillColor=#253858;strokeColor=none" vertex="1" parent="LnX6BK-S7mx_78NqDa5w-30">
          <mxGeometry x="1" y="0.5" width="18" height="18" relative="1" as="geometry">
            <mxPoint x="-24" y="-8" as="offset" />
          </mxGeometry>
        </mxCell>
        <mxCell id="LnX6BK-S7mx_78NqDa5w-32" value="" style="strokeWidth=2;html=1;shape=mxgraph.flowchart.merge_or_storage;whiteSpace=wrap;" vertex="1" parent="1">
          <mxGeometry x="-416" y="1226.6799999999998" width="16" height="14" as="geometry" />
        </mxCell>
        <mxCell id="LnX6BK-S7mx_78NqDa5w-34" value="&lt;font face=&quot;Times New Roman&quot;&gt;EXPORT&lt;/font&gt;" style="rounded=1;fillColor=#0057D8;strokeColor=none;fontColor=#ffffff;align=center;verticalAlign=middle;fontStyle=0;fontSize=14;html=1;shadow=0;dashed=0;sketch=0;hachureGap=4;pointerEvents=0;fontFamily=Architects Daughter;fontSource=https%3A%2F%2Ffonts.googleapis.com%2Fcss%3Ffamily%3DArchitects%2BDaughter;opacity=40;textOpacity=50;" vertex="1" parent="1">
          <mxGeometry x="-591" y="1320" width="210" height="30" as="geometry" />
        </mxCell>
        <mxCell id="LnX6BK-S7mx_78NqDa5w-35" value="&lt;font color=&quot;#000000&quot;&gt;Date:&lt;/font&gt;" style="fillColor=none;strokeColor=none;html=1;fontSize=11;fontStyle=1;align=left;fontColor=#FFFFFF;fontStyle=1;fontSize=11" vertex="1" parent="1">
          <mxGeometry x="-591" y="1128.56" width="165" height="10.120481927710843" as="geometry" />
        </mxCell>
        <mxCell id="LnX6BK-S7mx_78NqDa5w-36" value="" style="shape=flexArrow;endArrow=classic;startArrow=classic;html=1;rounded=0;" edge="1" parent="1">
          <mxGeometry width="100" height="100" relative="1" as="geometry">
            <mxPoint x="-360" y="1040" as="sourcePoint" />
            <mxPoint x="-80" y="1040" as="targetPoint" />
          </mxGeometry>
        </mxCell>
        <mxCell id="LnX6BK-S7mx_78NqDa5w-37" value="Активен/неактивен&lt;div&gt;токен&lt;/div&gt;" style="shape=callout;whiteSpace=wrap;html=1;perimeter=calloutPerimeter;position2=0.33;" vertex="1" parent="1">
          <mxGeometry x="-280" y="960" width="120" height="68" as="geometry" />
        </mxCell>
      </root>
    </mxGraphModel>
  </diagram>
</mxfile>
